<?xml version="1.0" encoding="UTF-8"?>
<!DOCTYPE svg PUBLIC "-//W3C//DTD SVG 1.1//EN" "http://www.w3.org/Graphics/SVG/1.1/DTD/svg11.dtd">
<svg version="1.1" xmlns="http://www.w3.org/2000/svg" xmlns:xlink="http://www.w3.org/1999/xlink" x="0" y="0" width="512" height="512" viewBox="0, 0, 512, 512">
  <g id="Background">
    <rect x="0" y="0" width="512" height="512" fill="#000000" fill-opacity="0"/>
  </g>
  <g id="Background"/>
  <g id="Layer_1">
    <path d="M441.496,80.751 C446.132,80.751 449.889,84.509 449.889,89.144 L449.889,112.708 L466.686,112.708 C482.07,112.708 494.586,125.229 494.586,140.619 L494.586,355.715 L503.607,355.715 C508.243,355.715 512,359.473 512,364.106 C512,368.741 508.244,372.499 503.607,372.499 L468.246,372.499 C464.099,405.571 435.823,431.246 401.646,431.246 C367.469,431.246 339.193,405.571 335.046,372.499 L172.205,372.49 C168.629,406.53 138.885,430.405 105.651,431.248 C71.474,431.248 43.199,405.573 39.051,372.501 L8.393,372.501 C3.757,372.501 0,368.743 0,364.108 C0,359.473 3.756,355.715 8.393,355.715 L14.717,355.715 L14.717,146.275 C14.717,127.767 29.775,112.708 48.284,112.708 L390.76,112.708 L390.76,89.144 C390.76,84.509 394.516,80.751 399.153,80.751 L441.496,80.751 z M401.645,313.749 C373.896,313.749 351.319,336.309 351.289,364.051 C351.29,364.071 351.292,364.09 351.292,364.11 C351.292,364.129 351.29,364.147 351.29,364.166 C351.323,391.905 373.899,414.463 401.646,414.463 C429.413,414.463 452.003,391.872 452.002,364.106 C452.002,336.34 429.413,313.749 401.645,313.749 L401.645,313.749 z M401.646,329.476 C420.74,329.476 436.274,345.011 436.274,364.104 C436.274,383.197 420.739,398.732 401.646,398.732 C382.553,398.732 367.018,383.197 367.018,364.104 C367.018,345.011 382.551,329.476 401.646,329.476 L401.646,329.476 z M401.646,346.264 C391.808,346.264 383.805,354.268 383.805,364.105 C383.805,373.942 391.808,381.946 401.646,381.946 C411.485,381.946 419.487,373.942 419.487,364.105 C419.487,354.268 411.484,346.264 401.646,346.264 L401.646,346.264 z M105.651,313.747 C77.888,313.747 55.3,336.331 55.294,364.092 L55.295,364.108 C55.295,364.112 55.295,364.116 55.295,364.121 C55.305,391.88 77.891,414.462 105.652,414.462 C133.42,414.462 156.008,391.871 156.008,364.104 C156.008,336.338 133.419,313.747 105.651,313.747 z M105.652,329.476 C124.747,329.476 140.28,345.011 140.28,364.104 C140.28,383.197 124.745,398.732 105.652,398.732 C86.559,398.732 71.024,383.197 71.024,364.104 C71.024,345.011 86.558,329.476 105.652,329.476 L105.652,329.476 z M105.652,346.264 C95.814,346.264 87.811,354.268 87.811,364.105 C87.811,373.942 95.814,381.946 105.652,381.946 C115.49,381.946 123.493,373.942 123.493,364.105 C123.493,354.268 115.49,346.264 105.652,346.264 L105.652,346.264 z M282.568,129.494 L48.281,129.494 C39.029,129.494 31.501,137.021 31.501,146.274 L31.501,355.714 L39.05,355.714 C43.194,322.638 71.471,296.959 105.651,296.959 C138.557,297.122 168.825,322.472 172.213,355.79 L282.569,355.713 L282.568,129.494 z M299.354,129.495 L299.355,355.714 L335.044,355.714 C339.188,322.638 367.465,296.959 401.645,296.959 C435.825,296.959 464.102,322.638 468.246,355.714 L477.798,355.714 L477.798,241.407 L398.968,241.407 C394.332,241.407 390.575,237.649 390.575,233.014 L390.575,156.145 C390.575,151.51 394.331,147.752 398.968,147.752 L477.799,147.752 L477.799,140.619 C477.799,134.485 472.814,129.495 466.686,129.495 L299.354,129.495 z M477.798,164.538 L407.361,164.538 L407.361,224.621 L477.798,224.621 L477.798,164.538 z M433.102,97.537 L407.546,97.537 L407.546,112.708 L433.102,112.708 L433.102,97.537 z M160.581,211.153 C165.474,211.153 169.455,215.134 169.455,220.027 C169.455,224.92 165.474,228.901 160.581,228.901 C155.688,228.901 151.706,224.92 151.706,220.027 C151.706,215.134 155.688,211.153 160.581,211.153 z M160.581,194.366 C146.431,194.366 134.919,205.877 134.919,220.026 C134.919,234.175 146.43,245.686 160.581,245.686 C174.73,245.686 186.241,234.175 186.241,220.026 C186.241,205.877 174.73,194.366 160.581,194.366 z M160.581,183.658 C180.635,183.658 196.949,199.973 196.949,220.027 C196.949,240.082 180.635,256.396 160.581,256.396 C140.526,256.396 124.212,240.081 124.212,220.027 C124.212,199.972 140.527,183.658 160.581,183.658 z M160.581,166.872 C131.271,166.872 107.425,190.717 107.425,220.028 C107.425,249.339 131.271,273.184 160.581,273.184 C189.891,273.184 213.736,249.339 213.736,220.028 C213.736,190.717 189.892,166.872 160.581,166.872 z M160.581,156.42 C195.655,156.42 224.189,184.954 224.189,220.028 C224.189,255.101 195.655,283.636 160.581,283.636 C125.508,283.636 96.973,255.102 96.973,220.028 C96.973,184.954 125.507,156.42 160.581,156.42 z M160.581,139.632 L79.481,139.632 C74.844,139.632 71.088,143.39 71.088,148.025 C71.088,152.66 74.845,156.418 79.481,156.418 L111.5,156.418 C92.473,171.134 80.187,194.165 80.187,220.026 C80.187,264.356 116.252,300.421 160.582,300.421 C186.442,300.421 209.474,288.135 224.19,269.108 L224.19,305.726 C224.19,310.363 227.948,314.121 232.583,314.121 C237.22,314.121 240.976,310.363 240.976,305.728 L240.976,220.028 C240.976,175.697 204.911,139.632 160.581,139.632 z M460.521,258.195 C455.884,258.195 452.128,261.953 452.128,266.588 L452.128,285.613 C452.128,290.248 455.885,294.006 460.521,294.006 C465.157,294.006 468.914,290.248 468.914,285.613 L468.914,266.588 C468.915,261.953 465.158,258.195 460.521,258.195 z M361.487,164.538 L361.487,224.621 L326.23,224.621 L326.23,164.538 L361.487,164.538 z M369.88,147.751 L317.836,147.751 C313.199,147.751 309.443,151.509 309.443,156.144 L309.443,233.013 C309.443,237.648 313.2,241.406 317.836,241.406 L369.88,241.406 C374.517,241.406 378.273,237.648 378.273,233.013 L378.273,156.144 C378.273,151.509 374.517,147.751 369.88,147.751 z" fill="#E54A4B"/>
  </g>
</svg>
