<?xml version="1.0" encoding="UTF-8"?>
<svg id="Layer_1" xmlns="http://www.w3.org/2000/svg" version="1.1" viewBox="0 0 368 512">
  <g id="Background">
    <rect fill-opacity="0" y="0" width="368" height="512"/>
  </g>
  <g id="Layer_11" data-name="Layer_1">
    <path fill="#ff512f" d="M225.3,421.8c18.2-7.5,31.5-18.7,41.1-30,.6-.3,1.2-.7,1.8-1.2.2-.2,24.8-23.5,49.1-50.9,34-38.5,50.5-65.6,50.5-82.9,0-30.2-27.1-42.7-46.5-46.1.1-7.6-.7-19.9-6-34.1-13.3-36.1-44.7-58.3-70.5-70.9v-16.9c0-4.3-3.5-7.8-7.8-7.8h-106.2c-4.3,0-7.8,3.5-7.8,7.8v16.9c-44.6,21.9-62.9,50.5-70.5,70.9-5.2,14.2-6.1,26.5-6,34.1C27.3,214.1.2,226.6.2,256.8s16.5,44.4,50.5,82.9c24.2,27.4,48.8,50.7,49.1,50.9.5.5,1.1.9,1.8,1.2,9.6,11.3,22.9,22.4,41.1,30,0,0,18.7,9.1,41,9.2,22.3.1,41.7-9.2,41.7-9.2ZM294.3,328.2v-81.7c4.6,1.5,10.1,4.5,13.6,10.7,9.2,16.7-1.1,46.1-13.6,71ZM55.5,225.3c2.2-.1,4.3-1.2,5.7-3,1.4-1.8,1.9-4,1.5-6.2-.1-.6-10.1-60.7,71.5-98.4,2.8-1.3,4.5-4,4.5-7.1v-14h90.6v14c0,3,1.8,5.8,4.5,7.1,34.2,15.8,56.6,37.1,66.6,63.5,7.4,19.6,4.9,34.8,4.9,34.9-.4,2.2.2,4.4,1.5,6.2,1.4,1.8,3.4,2.8,5.6,3,1.6.1,39.7,3,39.7,31.6s-15.4,35.3-35.3,59.3c11.6-28.9,13.1-51.2,4.4-66.7-11.1-19.7-33.9-20-34.9-20H81.3c-19.1,0-32.1,6.3-38.8,18.6-7.8,14.4-5.6,36.4,6.3,65.2-18.8-23-33-44.6-33-56.5,0-28.6,38.1-31.4,39.7-31.6ZM56.3,255.5c3-5.5,8.7-8.8,17.4-10v84.4c-14-26.7-25.7-59.1-17.4-74.4ZM105.7,371.4c-12.2-18.7-15.9-37.2-16.4-40.4v-85.9h189.4v85.9c-.5,3.2-4.1,21.3-16.1,39.9-17.4,27.1-43.7,42-77.9,44.3h-1.4c-34-2.3-60.1-17-77.6-43.8ZM173.9,150.6v17.5l9.8,11,10.4-11.2v-17.3h-20.2ZM177.7,195.8l-17.4-19.6c-1.3-1.4-2-3.3-2-5.2v-28.2c0-4.3,3.5-7.8,7.8-7.8h35.8c4.3,0,7.8,3.5,7.8,7.8v28.2c0,2-.8,3.9-2.1,5.3l-18.4,19.6c-1.5,1.6-3.5,2.5-5.7,2.5h-.1c-2.2,0-4.3-1-5.7-2.6Z"/>
  </g>
</svg>
