<?xml version="1.0" encoding="UTF-8"?>
<!DOCTYPE svg PUBLIC "-//W3C//DTD SVG 1.1//EN" "http://www.w3.org/Graphics/SVG/1.1/DTD/svg11.dtd">
<svg version="1.1" xmlns="http://www.w3.org/2000/svg" xmlns:xlink="http://www.w3.org/1999/xlink" x="0" y="0" width="368" height="512" viewBox="0, 0, 368, 512">
  <g id="Background">
    <rect x="0" y="0" width="368" height="512" fill="#000000" fill-opacity="0"/>
  </g>
  <g id="Background"/>
  <g id="Layer_1">
    <path d="M225.331,421.813 C243.512,414.3 256.824,403.135 266.43,391.859 C267.055,391.534 267.647,391.122 268.185,390.615 C268.43,390.384 293.017,367.131 317.264,339.706 C351.274,301.24 367.807,274.132 367.807,256.831 C367.807,226.622 340.702,214.143 321.314,210.69 C321.46,203.068 320.58,190.798 315.357,176.608 C302.059,140.479 270.612,118.328 244.898,105.691 L244.898,88.788 C244.898,84.487 241.411,81 237.11,81 L184.001,81 L130.891,81 C126.59,81 123.103,84.487 123.103,88.788 L123.103,105.69 C78.515,127.558 60.17,156.159 52.644,176.609 C47.42,190.799 46.541,203.069 46.687,210.691 C27.298,214.144 0.193,226.622 0.193,256.832 C0.193,274.132 16.726,301.241 50.736,339.707 C74.983,367.132 99.569,390.385 99.815,390.616 C100.353,391.124 100.945,391.536 101.57,391.861 C111.176,403.138 124.488,414.302 142.669,421.814 C142.669,421.814 161.378,430.866 183.635,430.999 C205.893,431.132 225.331,421.813 225.331,421.813 z M294.299,328.247 L294.299,246.52 C298.89,248.009 304.437,251.044 307.87,257.243 C317.118,273.936 306.776,303.305 294.299,328.247 z M55.503,225.278 C57.726,225.141 59.784,224.058 61.156,222.304 C62.527,220.549 63.083,218.291 62.682,216.1 C62.572,215.497 52.575,155.358 134.157,117.678 C136.914,116.404 138.679,113.645 138.679,110.608 L138.679,96.576 L184.001,96.576 L229.322,96.576 L229.322,110.608 C229.322,113.645 231.087,116.405 233.844,117.678 C268.021,133.463 290.423,154.822 300.429,181.159 C307.857,200.714 305.339,215.986 305.319,216.1 C304.918,218.286 305.479,220.538 306.843,222.291 C308.208,224.044 310.265,225.13 312.482,225.277 C314.105,225.384 352.231,228.234 352.231,256.832 C352.231,269.213 336.856,292.109 316.94,316.131 C328.55,287.258 330.066,264.925 321.375,249.475 C310.271,229.737 287.477,229.51 286.512,229.51 L81.303,229.51 C62.221,229.51 49.179,235.777 42.536,248.139 C34.777,262.577 36.889,284.506 48.79,313.378 C29.988,290.375 15.77,268.743 15.77,256.832 C15.77,228.234 53.896,225.384 55.503,225.278 z M56.259,255.509 C59.236,249.972 64.981,246.69 73.7,245.55 L73.7,329.923 C59.738,303.183 48.038,270.796 56.259,255.509 z M105.692,371.391 C93.506,352.688 89.838,334.171 89.276,330.981 L89.276,245.086 L278.723,245.086 L278.723,330.992 C278.173,334.169 274.635,352.25 262.618,370.911 C245.17,398.004 218.962,412.897 184.724,415.179 L183.275,415.179 C149.25,412.911 123.147,398.179 105.692,371.391 z M173.901,150.583 L173.901,168.049 L183.674,179.08 L194.1,167.929 L194.1,150.583 L173.901,150.583 z M177.688,195.815 L160.283,176.167 C159.021,174.743 158.325,172.906 158.325,171.003 L158.325,142.795 C158.325,138.494 161.812,135.007 166.113,135.007 L201.889,135.007 C206.19,135.007 209.677,138.494 209.677,142.795 L209.677,171.003 C209.677,172.978 208.926,174.879 207.577,176.322 L189.206,195.969 C187.733,197.545 185.673,198.438 183.518,198.438 C183.482,198.438 183.448,198.438 183.413,198.438 C181.22,198.408 179.142,197.455 177.688,195.815 z" fill="#FFB202"/>
  </g>
</svg>
