<?xml version="1.0" encoding="UTF-8"?>
<svg id="Layer_1" xmlns="http://www.w3.org/2000/svg" version="1.1" viewBox="0 0 100 100">
  <g id="Background">
    <rect fill-opacity="0" y="0" width="100" height="100"/>
  </g>
  <path fill="#ff512f" d="M99.8,40.2l-5.8-14.6c-1-2.5-3.5-4.2-6.2-4.2h-14.4v-3.3c0-1.8-1.5-3.3-3.3-3.3s-3.3,1.5-3.3,3.3v26.7H3.3c-1.8,0-3.3,1.5-3.3,3.3v20c0,3.7,3,6.7,6.7,6.7h7.1c1.8,7.1,9.1,11.4,16.2,9.6,4.7-1.2,8.4-4.9,9.6-9.6h20.8c1.8,7.1,9.1,11.4,16.2,9.6,4.7-1.2,8.4-4.9,9.6-9.6h7.1c3.7,0,6.7-3,6.7-6.7v-26.7c0-.4,0-.9-.2-1.2ZM26.7,78.1c-3.7,0-6.7-3-6.7-6.7s3-6.7,6.7-6.7,6.7,3,6.7,6.7-3,6.7-6.7,6.7ZM73.3,78.1c-3.7,0-6.7-3-6.7-6.7s3-6.7,6.7-6.7,6.7,3,6.7,6.7-3,6.7-6.7,6.7ZM73.3,38.1v-10h14.4l4,10h-18.4ZM3.3,31.4c-1.8,0-3.3,1.5-3.3,3.3s1.5,3.3,3.3,3.3h53.3c1.8,0,3.3-1.5,3.3-3.3s-1.5-3.3-3.3-3.3h-6.7v-10h6.7c1.8,0,3.3-1.5,3.3-3.3s-1.5-3.3-3.3-3.3H3.3c-1.8,0-3.3,1.5-3.3,3.3s1.5,3.3,3.3,3.3h6.7v10H3.3ZM33.3,21.4h10v10h-10v-10ZM16.7,21.4h10v10h-10v-10Z"/>
</svg>
