<?xml version="1.0" encoding="UTF-8"?>
<svg id="Layer_1" xmlns="http://www.w3.org/2000/svg" version="1.1" viewBox="0 0 100 100">
  <g id="Background">
    <rect fill-opacity="0" y="0" width="100" height="100"/>
  </g>
  <g id="Icons">
    <path id="watch" fill="#fff" d="M99.7,48.7c-.1-.3-3.7-8.2-11.5-16-10.5-10.5-23.7-16-38.2-16s-27.7,5.5-38.2,16C4,40.5.4,48.3.3,48.7c-.4.9-.4,1.8,0,2.7.1.3,3.7,8.2,11.5,16,10.5,10.5,23.7,16,38.2,16s27.7-5.5,38.2-16c7.8-7.8,11.4-15.7,11.5-16,.4-.9.4-1.8,0-2.7ZM50,66.7c-9.2,0-16.7-7.5-16.7-16.7s7.5-16.7,16.7-16.7,16.7,7.5,16.7,16.7-7.5,16.7-16.7,16.7Z"/>
  </g>
</svg>
