<?xml version="1.0" encoding="UTF-8"?>
<svg id="Layer_1" xmlns="http://www.w3.org/2000/svg" version="1.1" viewBox="0 0 100 100">
  <g id="Background">
    <rect fill-opacity="0" y="0" width="100" height="100"/>
  </g>
  <g id="Icons">
    <path id="fire" fill="#fff" d="M60.8.9c-1.6-1.3-3.9-1.1-5.2.5-.3.3-.5.7-.6,1.1l-10.2,28-11.2-10.8c-1.5-1.4-3.8-1.4-5.2,0,0,0-.2.2-.3.3-10,13.2-15.1,26.4-15.1,39.3,0,22.5,18.2,40.7,40.7,40.7s40.7-18.2,40.7-40.7S70.9,9.3,60.8.9h0ZM79.6,63.7c-2,11-10.6,19.6-21.6,21.5-.2,0-.4,0-.6,0-2.1,0-3.7-1.7-3.7-3.7s1.3-3.4,3.1-3.7c7.7-1.3,14.2-7.8,15.5-15.5.3-2,2.2-3.4,4.3-3s3.4,2.2,3,4.3h0Z"/>
  </g>
</svg>
