<?xml version="1.0" encoding="UTF-8"?>
<!DOCTYPE svg PUBLIC "-//W3C//DTD SVG 1.1//EN" "http://www.w3.org/Graphics/SVG/1.1/DTD/svg11.dtd">
<svg version="1.1" xmlns="http://www.w3.org/2000/svg" xmlns:xlink="http://www.w3.org/1999/xlink" x="0" y="0" width="100" height="100" viewBox="0, 0, 100, 100">
  <g id="Background">
    <rect x="0" y="0" width="100" height="100" fill="#000000" fill-opacity="0"/>
  </g>
  <g id="Layer_1">
    <path d="M50,0 L50,0 C71.441,0 88.889,17.448 88.889,38.889 C88.889,47.341 86.223,55.372 81.18,62.13 L81.179,62.131 L81.122,62.211 C81.114,62.216 81.13,62.206 81.117,62.214 L81.117,62.214 C81.116,62.216 81.115,62.215 81.114,62.217 C81.112,62.218 81.111,62.221 81.111,62.222 C79.557,64.294 55.615,96.218 54.445,97.778 C53.333,99.222 51.667,100 50,100 C48.333,100 46.784,99.453 45.444,97.666 L18.889,62.222 L18.887,62.218 C18.884,62.213 18.875,62.207 18.875,62.207 C13.797,55.436 11.111,47.374 11.111,38.889 C11.111,17.448 28.559,0 50,0 z M50,22.222 C40.81,22.222 33.333,29.699 33.333,38.889 C33.333,48.079 40.81,55.556 50,55.556 C59.19,55.556 66.667,48.079 66.667,38.889 C66.667,29.699 59.19,22.222 50,22.222 z M50,33.333 C53.065,33.333 55.556,35.824 55.556,38.889 C55.556,41.954 53.065,44.444 50,44.444 C46.935,44.444 44.444,41.954 44.444,38.889 C44.444,35.824 46.935,33.333 50,33.333 z" fill="#FFFFFF"/>
  </g>
</svg>
