<?xml version="1.0" encoding="UTF-8"?>
<svg id="Layer_1" xmlns="http://www.w3.org/2000/svg" version="1.1" viewBox="0 0 100 100">
  <g id="Background">
    <rect fill-opacity="0" y="0" width="100" height="100"/>
  </g>
  <path fill="#fff" d="M46.7,7.4v-3.7c0-2,1.7-3.7,3.7-3.7s3.7,1.7,3.7,3.7v3.7c0,2-1.7,3.7-3.7,3.7s-3.7-1.7-3.7-3.7ZM83.7,22.2c1,0,1.9-.4,2.6-1.1l3.7-3.7c1.4-1.4,1.4-3.8,0-5.2-1.4-1.4-3.8-1.4-5.2,0l-3.7,3.7c-1.4,1.4-1.4,3.8,0,5.2.7.7,1.6,1.1,2.6,1.1ZM14.4,21.1c1.4,1.4,3.8,1.4,5.2,0,1.4-1.4,1.4-3.8,0-5.2l-3.7-3.7c-1.4-1.4-3.8-1.4-5.2,0-1.4,1.4-1.4,3.8,0,5.2l3.7,3.7ZM54.7,33.4c-2-.4-3.9,1-4.3,3-.4,2,1,3.9,3,4.3,0,0,0,0,0,0,8.8,1.5,15.4,9.5,15.4,18.6s1.7,3.7,3.7,3.7,3.7-1.7,3.7-3.7c0-12.7-9.3-23.8-21.6-25.9h0ZM98.5,81.5v11.1c0,4.1-3.3,7.4-7.4,7.4H9.6c-4.1,0-7.4-3.3-7.4-7.4v-11.1c0-4.1,3.3-7.4,7.4-7.4v-14.8c0-22.5,18.2-40.7,40.7-40.7.1,0,.2,0,.3,0,22.3.2,40.4,18.7,40.4,41.2v14.4c4.1,0,7.4,3.3,7.4,7.4ZM17,74.1h66.7v-14.4c0-18.5-14.8-33.7-33.1-33.8h-.3c-18.4,0-33.3,14.9-33.3,33.3v14.8ZM91.1,92.6v-11.1H9.6v11.1h81.5Z"/>
</svg>
