<?xml version="1.0" encoding="UTF-8"?>
<!DOCTYPE svg PUBLIC "-//W3C//DTD SVG 1.1//EN" "http://www.w3.org/Graphics/SVG/1.1/DTD/svg11.dtd">
<svg version="1.1" xmlns="http://www.w3.org/2000/svg" xmlns:xlink="http://www.w3.org/1999/xlink" x="0" y="0" width="100" height="100" viewBox="0, 0, 100, 100">
  <g id="Background">
    <rect x="0" y="0" width="100" height="100" fill="#000000" fill-opacity="0"/>
  </g>
  <g id="Layer_1">
    <g>
      <path d="M35.494,91.674 C36.867,96.481 41.289,100 46.537,100 C51.784,100 56.206,96.48 57.58,91.674 C54.171,91.774 50.496,91.824 46.537,91.824 C42.578,91.824 38.903,91.774 35.494,91.674 z" fill="#FFFFFF"/>
      <path d="M97.293,79.784 L9.404,17.352 C6.801,15.503 3.191,16.114 1.341,18.718 C-0.508,21.321 0.103,24.931 2.707,26.78 L16.199,36.364 C15.958,38.534 15.83,40.756 15.83,43.021 C15.83,66.781 -31.218,86.042 46.537,86.042 C64.175,86.042 75.39,85.05 82.189,83.24 L90.596,89.211 C91.612,89.933 92.782,90.28 93.94,90.28 C95.749,90.28 97.531,89.433 98.659,87.846 C100.508,85.243 99.897,81.633 97.293,79.784 z" fill="#FFFFFF"/>
      <path d="M77.243,43.021 C77.243,19.261 63.496,0 46.537,0 C37.699,0 29.734,5.234 24.131,13.607 L79.716,53.092 C78.246,49.861 77.243,46.489 77.243,43.021 z" fill="#FFFFFF"/>
    </g>
  </g>
</svg>
