<?xml version="1.0" encoding="UTF-8"?>
<!DOCTYPE svg PUBLIC "-//W3C//DTD SVG 1.1//EN" "http://www.w3.org/Graphics/SVG/1.1/DTD/svg11.dtd">
<svg version="1.1" xmlns="http://www.w3.org/2000/svg" xmlns:xlink="http://www.w3.org/1999/xlink" x="0" y="0" width="100" height="100" viewBox="0, 0, 100, 100">
  <g id="Background">
    <rect x="0" y="0" width="100" height="100" fill="#000000" fill-opacity="0"/>
  </g>
  <g id="Layer_1">
    <path d="M15,55.5 C18,54 20,50.5 20,47 C20,41.5 15.5,37 10,37 C4.5,37 0,41.5 0,47 C0,51 2.5,54.5 6,56 C8.5,81 29.5,100 55,100 L55,91 C34.5,90.5 17.5,75.5 15,55.5 z M65,50 C70.5,50 75,45.5 75,40 C75,34.5 70.5,30 65,30 C59.5,30 55,34.5 55,40 C55,45.5 59.5,50 65,50 z M65,5 C84.5,5 100,21 100,40 C100,59.5 84.5,75 65,75 C45.5,75 30,59.5 30,40 C30,20.5 45.5,5 65,5 z" fill="#FFFFFF"/>
  </g>
</svg>
