<?xml version="1.0" encoding="UTF-8"?>
<!DOCTYPE svg PUBLIC "-//W3C//DTD SVG 1.1//EN" "http://www.w3.org/Graphics/SVG/1.1/DTD/svg11.dtd">
<svg version="1.1" xmlns="http://www.w3.org/2000/svg" xmlns:xlink="http://www.w3.org/1999/xlink" x="0" y="0" width="100" height="100" viewBox="0, 0, 100, 100">
  <g id="Background">
    <rect x="0" y="0" width="100" height="100" fill="#000000" fill-opacity="0"/>
  </g>
  <g id="Layer_1">
    <path d="M50,17.328 C27.943,17.328 8.934,30.33 0.201,49.093 C-0.067,49.662 -0.067,50.327 0.201,50.907 C8.934,69.669 27.944,82.672 50,82.672 C72.056,82.672 91.066,69.67 99.799,50.907 C100.067,50.338 100.067,49.673 99.799,49.093 C91.066,30.33 72.057,17.328 50,17.328 z M50,72.545 C37.545,72.545 27.461,62.45 27.461,50.005 C27.461,37.55 37.556,27.466 50,27.466 C62.455,27.466 72.539,37.561 72.539,50.005 C72.539,62.45 62.444,72.545 50,72.545 z M64.429,49.995 C64.429,42.026 57.969,35.566 50,35.566 C42.031,35.566 35.571,42.026 35.571,49.995 C35.571,57.964 42.031,64.424 50,64.424 C57.969,64.424 64.429,57.964 64.429,49.995 z" fill="#FFFFFF"/>
  </g>
</svg>
