<?xml version="1.0" encoding="UTF-8"?>
<svg id="Layer_1" xmlns="http://www.w3.org/2000/svg" version="1.1" viewBox="0 0 100 100">
  <g id="Background">
    <rect fill-opacity="0" y="0" width="100" height="100"/>
  </g>
  <g id="Layer_11" data-name="Layer_1">
    <g>
      <path fill="#fff" d="M35.5,91.7c1.4,4.8,5.8,8.3,11,8.3s9.7-3.5,11-8.3c-3.4,0-7.1.1-11,.1s-7.6,0-11-.1Z"/>
      <path fill="#fff" d="M97.3,79.8L9.4,17.4c-2.6-1.8-6.2-1.2-8.1,1.4-1.8,2.6-1.2,6.2,1.4,8.1l13.5,9.6c-.2,2.2-.4,4.4-.4,6.7,0,23.8-47,43,30.7,43s28.9-1,35.7-2.8l8.4,6c1,.7,2.2,1.1,3.3,1.1,1.8,0,3.6-.8,4.7-2.4,1.8-2.6,1.2-6.2-1.4-8.1Z"/>
      <path fill="#fff" d="M77.2,43C77.2,19.3,63.5,0,46.5,0s-16.8,5.2-22.4,13.6l55.6,39.5c-1.5-3.2-2.5-6.6-2.5-10.1Z"/>
    </g>
  </g>
</svg>
