<?xml version="1.0" encoding="UTF-8"?>
<!DOCTYPE svg PUBLIC "-//W3C//DTD SVG 1.1//EN" "http://www.w3.org/Graphics/SVG/1.1/DTD/svg11.dtd">
<svg version="1.1" xmlns="http://www.w3.org/2000/svg" xmlns:xlink="http://www.w3.org/1999/xlink" x="0" y="0" width="100" height="100" viewBox="0, 0, 100, 100">
  <g id="Background">
    <rect x="0" y="0" width="100" height="100" fill="#000000" fill-opacity="0"/>
  </g>
  <g id="Layer_1">
    <path d="M87.286,58.61 C86.141,43.697 79.197,34.351 73.071,26.103 C67.399,18.468 62.5,11.875 62.5,2.149 C62.5,1.368 62.062,0.653 61.369,0.295 C60.673,-0.065 59.837,-0.006 59.204,0.454 C50.004,7.037 42.328,18.133 39.646,28.719 C37.785,36.09 37.539,44.376 37.504,49.848 C29.008,48.034 27.083,35.325 27.063,35.187 C26.967,34.527 26.565,33.954 25.979,33.641 C25.387,33.331 24.691,33.309 24.091,33.606 C23.645,33.822 13.155,39.152 12.545,60.433 C12.502,61.141 12.5,61.851 12.5,62.561 C12.5,83.236 29.323,100.059 50,100.059 C50.029,100.061 50.059,100.065 50.083,100.059 C50.092,100.059 50.1,100.059 50.11,100.059 C70.736,99.999 87.5,83.2 87.5,62.561 C87.5,61.522 87.286,58.61 87.286,58.61 z M50,95.892 C43.107,95.892 37.5,89.919 37.5,82.577 C37.5,82.327 37.498,82.075 37.516,81.766 C37.6,78.669 38.188,76.556 38.833,75.15 C40.041,77.746 42.202,80.132 45.711,80.132 C46.863,80.132 47.795,79.2 47.795,78.049 C47.795,75.083 47.856,71.661 48.594,68.573 C49.252,65.834 50.822,62.921 52.812,60.586 C53.697,63.617 55.422,66.07 57.107,68.465 C59.518,71.891 62.01,75.433 62.447,81.473 C62.474,81.831 62.5,82.191 62.5,82.577 C62.5,89.919 56.893,95.892 50,95.892 z" fill="#FFFFFF"/>
  </g>
</svg>
