<svg id="Layer_1" data-name="Layer 1" xmlns="http://www.w3.org/2000/svg" viewBox="0 0 44.25 57"><defs><style>.cls-1{fill:#ff512f;}</style></defs><title>logo_flame</title><g id="Layer_1-2" data-name="Layer 1"><path class="cls-1" d="M366.6,38h1V84h-1ZM321.5,57.7c-4-6.6-.2-16.4,9-21.2s5.8-12.8,5.8-12.8,7.8,5.2,4,17.1,2.9,13.9,2.9,13.9-1.9-1.8-1.9-6.8,5.2-8.4,5.2-8.4c-2.7,9.7,8.4,14.5,8.4,26.1s-12.3,15.1-12.3,15.1a13.78,13.78,0,0,0-5.5-11c-5.8-4.2-4.4-7.5-4.4-7.5-7.4,10.8-3.2,18.5-3.2,18.5s-3.4-4.7-6.6-5.2-5-5-5-5c-.5,5.3,5,8.9,5,8.9-25-11.6-4-28.9-4-28.9C316.4,59.7,321.5,57.7,321.5,57.7Zm59.6-9.2H399l-1.5,3.1h-13v7H394l-1.6,3.1h-7.9V72.6h-3.4Zm14,12.1c0-6.5,5.4-12.5,12.2-12.5s12.2,6,12.2,12.5S414,73.1,407.3,73.1,395.1,67.1,395.1,60.6Zm4,0c0,4.3,3.7,8.7,8.2,8.7s8.2-4.3,8.2-8.7-3.7-8.6-8.2-8.6S399.1,56.2,399.1,60.6Zm43.7.8v6.8h0s-.1,1.7-.9,2.2a16.27,16.27,0,0,1-9,2.7c-6.9,0-10.9-5.2-10.9-12.5s5.7-12.5,10.9-12.5c6.1,0,9.2,3.3,9.2,8.3v.2l-3.2-.1v-.2c0-3.2-2.4-4.8-5.9-4.8-4.5,0-7.5,4.5-7.5,9.1,0,5.8,3.7,9.1,7.3,9.1a11.84,11.84,0,0,0,6.7-1.8V64.6h-2.6l-1.5-3.2Zm2.2-.8c0-6.5,5.4-12.5,12.2-12.5s12.2,6,12.2,12.5-5.5,12.5-12.2,12.5S445,67.1,445,60.6Zm3.9,0c0,4.3,3.7,8.7,8.2,8.7s8.2-4.3,8.2-8.7-3.7-8.6-8.2-8.6S448.9,56.2,448.9,60.6Zm30-9.1c-2.8,0-4.6,1.2-4.6,3.5,0,2.5,3.3,2.7,5.9,3.2,4.8.9,9.5,1.9,9.5,7.6,0,3.7-4.3,7.2-9,7.2-6,0-7.9-1.1-9.8-2.4l-.2-.1,2.3-2.7h.1c1,.1,2.4,1.8,7.6,1.8,2.6,0,5.4-1.4,5.4-3.8,0-3.2-3.8-3.6-7-4.2-4.2-.8-8.4-1.7-8.4-6.6,0-3.5,3.3-6.9,8.2-6.9,6,0,6.7,1.1,8.6,2.4l.2.1-2.3,2.7h-.1C484.2,53.3,484.1,51.5,478.9,51.5ZM494,67.4a2.78,2.78,0,0,1,2.8,2.7,2.71,2.71,0,0,1-2.8,2.7,2.7,2.7,0,1,1,0-5.4Zm14.4-14c5.9,0,9.2,5,9.2,9.9a9.45,9.45,0,0,1-9.2,9.8,8.24,8.24,0,0,1-6.5-3V80.8l-3.5-2.5V53.9h3.2v2.6A9.12,9.12,0,0,1,508.4,53.4Zm-.2,16c3.7,0,5.7-3,5.7-6.1,0-3.4-2.2-6.3-5.7-6.3-4,0-6.2,2.7-6.2,6.3A6.08,6.08,0,0,0,508.2,69.4Zm25.2,2a7.82,7.82,0,0,1-5.5,1.7c-5,0-7.7-2.5-7.7-7.1V57.4h-3.4V54h3.4V46.4h3.6V54h8v3.4h-8v8.3c0,2.7,1.3,4.1,4.2,4.1a4.89,4.89,0,0,0,3.9-1.3l.2-.1,1.5,3ZM10.85,34c-4-6.6-.2-16.4,9-21.2S25.65,0,25.65,0s7.8,5.2,4,17.1S32.55,31,32.55,31s-1.9-1.8-1.9-6.8,5.2-8.4,5.2-8.4c-2.7,9.7,8.4,14.5,8.4,26.1S32,57,32,57a13.78,13.78,0,0,0-5.5-11c-5.8-4.2-4.4-7.5-4.4-7.5-7.4,10.8-3.2,18.5-3.2,18.5s-3.4-4.7-6.6-5.2-5-5-5-5c-.5,5.3,5,8.9,5,8.9-25-11.6-4-28.9-4-28.9C5.75,36,10.85,34,10.85,34Z"/></g></svg>