<?xml version="1.0" encoding="UTF-8"?>
<svg id="Layer_2" data-name="Layer 2" xmlns="http://www.w3.org/2000/svg" viewBox="0 0 425.2 78.67">
  <defs>
    <style>
      .cls-1 {
        fill: #fff;
      }
    </style>
  </defs>
  <g id="Branco">
    <g id="branco">
      <path class="cls-1" d="M0,31.38v-10.27h43.37v10.27H0ZM34.07,10.27c-3.8,0-6.55.75-8.23,2.24-1.68,1.5-2.53,3.9-2.53,7.21v44.26h-13.61V20.62c0-4.24.83-7.89,2.49-10.96,1.66-3.07,4.18-5.45,7.58-7.13C23.16.84,27.39,0,32.44,0,34.78,0,36.87.18,38.72.53c1.85.35,3.72.83,5.62,1.43v10.27c-1.58-.65-3.21-1.14-4.89-1.47-1.69-.33-3.48-.49-5.38-.49Z"/>
      <path class="cls-1" d="M97.8,29.51c-1.42-3.18-3.47-6.04-6.04-8.4l-2.12-1.95c-.24-.22-.62-.2-.83.05-.05.06-.09.12-.11.19l-.95,2.72c-.59,1.71-1.68,3.45-3.21,5.16-.1.11-.22.14-.3.15-.08,0-.2,0-.31-.11-.1-.09-.15-.22-.15-.35.27-4.39-1.04-9.34-3.91-14.72-2.38-4.48-5.68-7.97-9.8-10.4l-3.01-1.77c-.39-.23-.9.07-.87.53l.16,3.5c.11,2.39-.17,4.5-.82,6.26-.8,2.15-1.95,4.15-3.43,5.94-1.02,1.25-2.19,2.37-3.46,3.36-3.07,2.36-5.57,5.39-7.31,8.86-1.73,3.5-2.64,7.34-2.64,11.25,0,3.44.68,6.77,2.02,9.91,1.29,3.02,3.16,5.77,5.5,8.08,2.36,2.33,5.1,4.17,8.16,5.44,3.16,1.33,6.52,2,9.98,2s6.82-.67,9.98-1.99c3.05-1.27,5.82-3.12,8.16-5.44,2.36-2.33,4.21-5.06,5.5-8.08,1.34-3.13,2.03-6.51,2.02-9.91,0-3.56-.73-7.01-2.18-10.27h0Z"/>
      <path class="cls-1" d="M131.24,59.75c-4.29,0-8.14-.9-11.54-2.69-3.4-1.79-6.07-4.32-8.03-7.58s-2.93-7.06-2.93-11.41.98-8.14,2.93-11.37c1.96-3.23,4.63-5.76,8.03-7.58,3.4-1.82,7.24-2.73,11.54-2.73,3.26,0,6.24.5,8.93,1.51,2.69,1.01,5.11,2.32,7.25,3.95,2.15,1.63,3.95,3.41,5.42,5.34,1.47,1.93,2.59,3.86,3.38,5.79.79,1.93,1.18,3.68,1.18,5.26,0,2.01-.61,4.27-1.83,6.77-1.22,2.5-2.97,4.86-5.26,7.09-2.28,2.23-5.03,4.06-8.23,5.5-3.21,1.44-6.82,2.16-10.84,2.16ZM152.36,52.5v-8.07l.49-1.71v-10.11l-.49-1.71v-13.29h13.61v33.99c0,5.87-1.29,10.82-3.87,14.84-2.58,4.02-6.15,7.06-10.72,9.13-4.57,2.06-9.86,3.1-15.9,3.1-4.24,0-8.14-.54-11.7-1.63-3.56-1.09-7.05-2.74-10.47-4.97v-10.68c3.31,2.56,6.78,4.37,10.39,5.46,3.61,1.09,7.27,1.63,10.96,1.63,5.71,0,10.08-1.33,13.12-3.99,3.04-2.66,4.57-6.66,4.57-11.98ZM135.73,50.13c3.53,0,6.73-.96,9.58-2.89,2.85-1.93,5.37-4.99,7.54-9.17-2.17-4.24-4.7-7.32-7.58-9.25-2.88-1.93-6.06-2.89-9.54-2.89-2.77,0-5.15.5-7.13,1.51-1.98,1.01-3.51,2.42-4.56,4.24-1.06,1.82-1.59,3.95-1.59,6.4s.52,4.5,1.55,6.32c1.03,1.82,2.55,3.23,4.57,4.24,2.01,1.01,4.4,1.51,7.17,1.51Z"/>
      <path class="cls-1" d="M202.57,65.21c-5.76,0-10.82-1.02-15.16-3.06-4.35-2.04-7.74-4.89-10.19-8.56s-3.67-7.92-3.67-12.76,1.22-9.17,3.67-12.84,5.84-6.52,10.19-8.56c4.35-2.04,9.4-3.06,15.16-3.06s10.81,1.02,15.16,3.06c4.35,2.04,7.73,4.89,10.15,8.56,2.42,3.67,3.63,7.95,3.63,12.84s-1.21,9.09-3.63,12.76c-2.42,3.67-5.8,6.52-10.15,8.56-4.35,2.04-9.4,3.06-15.16,3.06ZM202.57,54.86c3.15,0,5.86-.57,8.11-1.71,2.25-1.14,3.99-2.76,5.22-4.85,1.22-2.09,1.83-4.58,1.83-7.46s-.61-5.45-1.83-7.54c-1.22-2.09-2.96-3.71-5.22-4.85-2.26-1.14-4.96-1.71-8.11-1.71s-5.79.57-8.07,1.71c-2.28,1.14-4.04,2.76-5.26,4.85-1.22,2.09-1.83,4.61-1.83,7.54s.61,5.37,1.83,7.46c1.22,2.09,2.98,3.71,5.26,4.85,2.28,1.14,4.97,1.71,8.07,1.71Z"/>
      <path class="cls-1" d="M290.2,49.4c0,3.32-.96,6.17-2.89,8.56-1.93,2.39-4.8,4.2-8.6,5.42-3.8,1.22-8.45,1.83-13.94,1.83s-10.57-.69-14.76-2.08c-4.18-1.39-7.45-3.36-9.78-5.91-2.34-2.55-3.59-5.52-3.75-8.89h13.86c.33,1.52,1.14,2.84,2.45,3.95,1.3,1.11,3,1.97,5.09,2.57,2.09.6,4.52.9,7.3.9,3.86,0,6.78-.43,8.76-1.3,1.98-.87,2.97-2.17,2.97-3.91,0-1.25-.69-2.2-2.08-2.85s-3.93-1.14-7.62-1.47l-8.64-.65c-5.16-.43-9.27-1.3-12.31-2.61-3.04-1.3-5.2-2.95-6.48-4.93-1.28-1.98-1.92-4.17-1.92-6.56,0-3.31,1.03-6.09,3.1-8.31,2.06-2.23,4.96-3.91,8.68-5.05,3.72-1.14,8.03-1.71,12.92-1.71s9.46.68,13.37,2.04c3.91,1.36,7.05,3.23,9.42,5.63,2.36,2.39,3.71,5.16,4.03,8.32h-13.86c-.22-1.14-.83-2.21-1.83-3.22-1.01-1-2.46-1.83-4.36-2.49-1.9-.65-4.38-.98-7.42-.98-3.42,0-6.06.39-7.91,1.18-1.85.79-2.77,1.97-2.77,3.55,0,1.09.57,1.97,1.71,2.65,1.14.68,3.26,1.16,6.36,1.43l11.25.9c5,.44,8.94,1.26,11.82,2.49,2.88,1.22,4.9,2.81,6.07,4.77,1.17,1.96,1.75,4.21,1.75,6.77Z"/>
      <path class="cls-1" d="M304.22,64.73c-1.47,0-2.81-.35-4.04-1.06-1.22-.71-2.19-1.67-2.89-2.89-.71-1.22-1.06-2.57-1.06-4.04s.35-2.89,1.06-4.12c.71-1.22,1.67-2.19,2.89-2.89,1.22-.71,2.57-1.06,4.04-1.06s2.89.35,4.12,1.06c1.22.71,2.19,1.67,2.89,2.89.71,1.22,1.06,2.6,1.06,4.12s-.35,2.81-1.06,4.04c-.71,1.22-1.67,2.19-2.89,2.89-1.22.71-2.6,1.06-4.12,1.06Z"/>
      <path class="cls-1" d="M320.77,17.61h13.61v14.76l-.57,1.79v11.17l.57,3.34v28.78h-13.61V17.61ZM329.66,40.84c.92-4.94,2.54-9.25,4.85-12.92,2.31-3.67,5.22-6.51,8.72-8.52,3.51-2.01,7.4-3.02,11.7-3.02,4.56,0,8.57,1.02,12.02,3.06,3.45,2.04,6.15,4.89,8.11,8.56,1.96,3.67,2.93,7.95,2.93,12.84s-.98,9.09-2.93,12.76c-1.96,3.67-4.66,6.52-8.11,8.56-3.45,2.04-7.46,3.06-12.02,3.06s-8.25-1.01-11.7-3.02c-3.45-2.01-6.35-4.85-8.68-8.52-2.34-3.67-3.97-7.95-4.89-12.84ZM364.22,40.84c0-2.72-.56-5.12-1.67-7.21-1.11-2.09-2.65-3.72-4.61-4.89-1.96-1.17-4.21-1.75-6.77-1.75s-4.97.59-7.25,1.75c-2.28,1.17-4.28,2.8-5.99,4.89-1.71,2.09-3.06,4.5-4.03,7.21.98,2.72,2.32,5.11,4.03,7.17,1.71,2.07,3.71,3.68,5.99,4.85,2.28,1.17,4.7,1.75,7.25,1.75s4.81-.58,6.77-1.75c1.96-1.17,3.49-2.78,4.61-4.85,1.11-2.07,1.67-4.46,1.67-7.17Z"/>
      <path class="cls-1" d="M380.52,27.88v-6.03l9.7-3.18,5.79-13.29h7.83v12.23h20.54v10.27h-20.54v16.87c0,3.59.75,6.1,2.24,7.54,1.49,1.44,4.09,2.16,7.79,2.16,2.34,0,4.4-.22,6.2-.65,1.79-.43,3.51-1.06,5.14-1.87v10.6c-1.58.65-3.67,1.26-6.28,1.83-2.61.57-5.3.86-8.07.86-4.84,0-8.76-.77-11.78-2.32-3.02-1.55-5.25-3.71-6.68-6.48-1.44-2.77-2.16-6-2.16-9.7v-18.83h-9.7Z"/>
    </g>
  </g>
</svg>