<?xml version="1.0" encoding="UTF-8"?>
<svg id="Layer_2" data-name="Layer 2" xmlns="http://www.w3.org/2000/svg" xmlns:xlink="http://www.w3.org/1999/xlink" viewBox="0 0 1024 1024">
  <defs>
    <style>
      .cls-1 {
        fill: url(#linear-gradient-15);
      }

      .cls-2 {
        fill: url(#linear-gradient-13);
      }

      .cls-3 {
        fill: url(#linear-gradient-28);
      }

      .cls-4 {
        fill: url(#linear-gradient-2);
      }

      .cls-5 {
        fill: url(#linear-gradient-25);
      }

      .cls-6 {
        fill: url(#linear-gradient-10);
      }

      .cls-7 {
        fill: url(#linear-gradient-12);
      }

      .cls-8 {
        fill: url(#linear-gradient-27);
      }

      .cls-9 {
        fill: url(#linear-gradient-26);
      }

      .cls-10 {
        fill: none;
      }

      .cls-11 {
        fill: url(#linear-gradient-4);
      }

      .cls-12 {
        fill: url(#linear-gradient-30);
      }

      .cls-13 {
        fill: url(#linear-gradient-3);
      }

      .cls-14 {
        fill: url(#linear-gradient-34);
      }

      .cls-15 {
        fill: url(#linear-gradient-5);
      }

      .cls-16 {
        fill: url(#linear-gradient-22);
      }

      .cls-17 {
        fill: url(#linear-gradient-24);
      }

      .cls-18 {
        fill: #231f20;
      }

      .cls-19 {
        fill: url(#linear-gradient-33);
      }

      .cls-20 {
        fill: url(#linear-gradient-8);
      }

      .cls-21 {
        fill: url(#linear-gradient-14);
      }

      .cls-22 {
        fill: url(#linear-gradient-29);
      }

      .cls-23 {
        fill: url(#linear-gradient-20);
      }

      .cls-24 {
        fill: url(#linear-gradient-17);
      }

      .cls-25 {
        fill: url(#linear-gradient-7);
      }

      .cls-26 {
        fill: url(#linear-gradient-9);
      }

      .cls-27 {
        fill: url(#linear-gradient-11);
      }

      .cls-28 {
        fill: url(#linear-gradient-19);
      }

      .cls-29 {
        fill: url(#linear-gradient-6);
      }

      .cls-30 {
        fill: #f5b167;
      }

      .cls-31 {
        fill: url(#linear-gradient-21);
      }

      .cls-32 {
        fill: url(#linear-gradient-32);
      }

      .cls-33 {
        fill: url(#linear-gradient-16);
      }

      .cls-34 {
        fill: url(#linear-gradient);
      }

      .cls-35 {
        fill: url(#linear-gradient-23);
      }

      .cls-36 {
        fill: url(#linear-gradient-31);
      }

      .cls-37 {
        fill: url(#linear-gradient-18);
      }
    </style>
    <linearGradient id="linear-gradient" x1="628.81" y1="926.62" x2="650.42" y2="926.62" gradientTransform="translate(67.09 -190.65) rotate(12.99)" gradientUnits="userSpaceOnUse">
      <stop offset="0" stop-color="#f5b167"/>
      <stop offset="1" stop-color="#f05d55"/>
    </linearGradient>
    <linearGradient id="linear-gradient-2" x1="644.62" y1="572.83" x2="831.05" y2="572.83" xlink:href="#linear-gradient"/>
    <linearGradient id="linear-gradient-3" x1="406.58" y1="620.53" x2="449.08" y2="620.53" xlink:href="#linear-gradient"/>
    <linearGradient id="linear-gradient-4" x1="586.01" y1="456.9" x2="788.96" y2="456.9" xlink:href="#linear-gradient"/>
    <linearGradient id="linear-gradient-5" x1="565.19" y1="842.86" x2="806.3" y2="842.86" xlink:href="#linear-gradient"/>
    <linearGradient id="linear-gradient-6" x1="565.19" y1="457.34" x2="806.3" y2="457.34" xlink:href="#linear-gradient"/>
    <linearGradient id="linear-gradient-7" x1="588.57" y1="622.92" x2="547.06" y2="880.76" xlink:href="#linear-gradient"/>
    <linearGradient id="linear-gradient-8" x1="580.82" y1="621.67" x2="539.31" y2="879.51" xlink:href="#linear-gradient"/>
    <linearGradient id="linear-gradient-9" x1="499.04" y1="608.51" x2="457.53" y2="866.34" xlink:href="#linear-gradient"/>
    <linearGradient id="linear-gradient-10" x1="430.58" y1="855.29" x2="523.34" y2="855.29" xlink:href="#linear-gradient"/>
    <linearGradient id="linear-gradient-11" x1="430.58" y1="614.63" x2="523.34" y2="614.63" xlink:href="#linear-gradient"/>
    <linearGradient id="linear-gradient-12" x1="386.83" y1="861.58" x2="852.59" y2="395.82" gradientTransform="translate(67.09 -190.65) rotate(12.99)" gradientUnits="userSpaceOnUse">
      <stop offset="0" stop-color="#f5b167"/>
      <stop offset="1" stop-color="#f79d66"/>
    </linearGradient>
    <linearGradient id="linear-gradient-13" x1="402.37" y1="877.12" x2="868.13" y2="411.36" xlink:href="#linear-gradient-12"/>
    <linearGradient id="linear-gradient-14" x1="565.19" y1="750.94" x2="806.3" y2="750.94" xlink:href="#linear-gradient"/>
    <linearGradient id="linear-gradient-15" x1="441.51" y1="916.26" x2="907.27" y2="450.5" xlink:href="#linear-gradient-12"/>
    <linearGradient id="linear-gradient-16" x1="581.93" y1="621.85" x2="540.42" y2="879.69" xlink:href="#linear-gradient"/>
    <linearGradient id="linear-gradient-17" x1="434.65" y1="909.4" x2="900.41" y2="443.64" xlink:href="#linear-gradient-12"/>
    <linearGradient id="linear-gradient-18" x1="430.58" y1="812.32" x2="523.34" y2="812.32" xlink:href="#linear-gradient"/>
    <linearGradient id="linear-gradient-19" x1="414.97" y1="889.72" x2="880.73" y2="423.96" xlink:href="#linear-gradient-12"/>
    <linearGradient id="linear-gradient-20" x1="369.2" y1="752.35" x2="789.89" y2="752.35" xlink:href="#linear-gradient"/>
    <linearGradient id="linear-gradient-21" x1="369.2" y1="531.4" x2="789.89" y2="531.4" xlink:href="#linear-gradient"/>
    <linearGradient id="linear-gradient-22" x1="565.19" y1="686.02" x2="806.3" y2="686.02" xlink:href="#linear-gradient"/>
    <linearGradient id="linear-gradient-23" x1="369.2" y1="686.02" x2="789.89" y2="686.02" xlink:href="#linear-gradient"/>
    <linearGradient id="linear-gradient-24" x1="554.92" y1="617.5" x2="513.41" y2="875.34" xlink:href="#linear-gradient"/>
    <linearGradient id="linear-gradient-25" x1="369.2" y1="720.95" x2="789.89" y2="720.95" xlink:href="#linear-gradient"/>
    <linearGradient id="linear-gradient-26" x1="430.58" y1="742.21" x2="523.34" y2="742.21" xlink:href="#linear-gradient"/>
    <linearGradient id="linear-gradient-27" x1="369.2" y1="742.21" x2="789.89" y2="742.21" xlink:href="#linear-gradient"/>
    <linearGradient id="linear-gradient-28" x1="463.58" y1="611.16" x2="651.4" y2="611.16" xlink:href="#linear-gradient"/>
    <linearGradient id="linear-gradient-29" x1="565.19" y1="649.69" x2="806.3" y2="649.69" xlink:href="#linear-gradient"/>
    <linearGradient id="linear-gradient-30" x1="463.58" y1="649.69" x2="651.4" y2="649.69" xlink:href="#linear-gradient"/>
    <linearGradient id="linear-gradient-31" x1="538.34" y1="614.83" x2="496.83" y2="872.67" xlink:href="#linear-gradient"/>
    <linearGradient id="linear-gradient-32" x1="463.58" y1="679.05" x2="651.4" y2="679.05" xlink:href="#linear-gradient"/>
    <linearGradient id="linear-gradient-33" x1="430.58" y1="697.84" x2="523.34" y2="697.84" xlink:href="#linear-gradient"/>
    <linearGradient id="linear-gradient-34" x1="463.58" y1="697.84" x2="651.4" y2="697.84" xlink:href="#linear-gradient"/>
  </defs>
  <g id="App_Icon" data-name="App Icon">
    <rect class="cls-10" width="1024" height="1024"/>
    <g>
      <path class="cls-18" d="M634.44,471.72l-.82,14.86v14.87c-1.12,18.18-1.65,44.91-1.65,80.16,0,39.12-.83,68.87-2.47,89.25l-2.49,27.26c-2.76,44.62-14.04,82.63-33.88,114.03-8.26,11.57-20.66,21.76-37.19,30.57-16.52,8.82-34.7,15.98-54.54,21.49-20.38,6.05-44.34,9.08-71.88,9.08-12.68,0-21.48-.28-26.44-.82-26.99-2.21-51.11-8.14-72.3-17.77-21.21-9.63-36.77-23.82-46.68-42.55-13.22-24.79-20.39-55.91-21.49-93.38l-1.65-26.44c-.55-4.4-.82-13.49-.82-27.27-2.77-45.16-4.13-88.41-4.13-129.73,0-25.32.82-50.68,2.47-76.01,1.65-27.54,6.47-54.4,14.46-80.56,7.99-26.16,20.25-49.17,36.77-69.01l18.18-9.91c35.25-17.07,73.81-25.62,115.69-25.62,26.44,0,51.35,3.46,74.78,10.33,23.4,6.9,43.92,16.95,61.56,30.17,19.27,17.63,31.94,34.99,38.01,52.06,6.62,17.63,11.28,35.25,14.05,52.88,1.65,17.08,2.47,34.43,2.47,52.06ZM503.89,509.73l-3.31-42.97c-1.12-15.41-4.83-29.05-11.15-40.9-6.35-11.85-14.47-20.25-24.38-25.2-4.41-1.65-8.82-2.49-13.22-2.49-13.22,0-26.17,4.42-38.84,13.22-6.6,5.51-13.09,13.37-19.42,23.55-6.33,10.21-11.15,20.54-14.46,30.99-5.51,24.25-8.26,55.1-8.26,92.56,0,18.73.27,32.78.82,42.14v-.82c2.21,11.03,3.85,25.61,4.96,43.79l.82,11.57c2.21,27.56,5.23,47.93,9.09,61.15v-.83c4.96,11.03,12.25,19.42,21.89,25.2,9.64,5.78,19.97,8.67,30.99,8.67,8.81,0,17.77-2.06,26.86-6.19,9.09-4.14,16.95-10.05,23.55-17.77,5.5-7.15,8.96-13.22,10.33-18.18,1.37-4.96,2.07-12.67,2.07-23.13,0-9.36.27-16.25.82-20.66l.83-10.75.82-15.69v-11.58l.83-15.69v-39.66l-1.65-56.19v-4.13Z"/>
      <g>
        <path class="cls-34" d="M487.4,870.61l2.2.51c-2.59-9.78-4.52-19.03-6.18-28.04-4.05,4.92-8.26,9.53-12.73,13.85,5.58,4.55,10.78,8.95,16.71,13.68Z"/>
        <path class="cls-4" d="M590.46,665c16.84-7.7,35.03-16.25,52.12-25.05,17.35-9.9,34.69-19.8,50.09-31.31,15.4-11.51,29.36-26.82,41.63-44.85,12.27-18.02,20.9-40.36,26.23-63.46,6.85-29.7,9.05-59.31,6.34-87.75-1.8-18.92-5.41-36.13-9.83-52.57-39.03,136.91-112.87,249.66-231.75,330.62.11,2.95.38,5.91.48,8.86,5.23-3.85,10.53-7.62,16.37-10.89,14.64-8.21,30.38-16.16,48.31-23.61Z"/>
        <path class="cls-13" d="M365.83,459.02c6.84-16.25,14.63-31.58,22.93-46.42-.28.21-.6.38-.88.59-15.4,11.51-29.36,26.82-41.63,44.85-12.27,18.02-20.9,40.36-26.23,63.46-6.85,29.7-9.05,59.31-6.34,87.75.01.58.09,1.12.11,1.69,5.99-1.5,11.92-3.17,18.02-4.32,3.13-50.22,13.71-99.52,34.03-147.59Z"/>
        <path class="cls-11" d="M514.5,554.06c.11.93.17,1.87.28,2.8,3.85-1.67,7.84-3.06,11.61-4.88,14.78-6.92,29.13-14.59,43.11-22.81,75.57-44.47,138.67-107.45,183.43-183.09-1.11-3.38-1.84-7.14-3.07-10.41-9.73-23.1-21.92-45.61-39.86-68.28-5.19-6.92-10.58-13.24-15.9-19.75-36.46,22.21-70.56,48.27-101.17,79.98-61.11,63.27-89.49,137.55-78.44,226.44Z"/>
        <path class="cls-30" d="M648.94,199.35c-17.05-15.79-35.63-31.39-56.89-48.38l-1.1-.25c6.13,25.39,9.34,48.34,10,68.96,1.28-.6,2.46-1.29,3.75-1.88,14.5-6.8,29.34-12.71,44.24-18.45Z"/>
        <path class="cls-15" d="M494.21,710.58c-11.21,6.68-22.64,12.86-34.26,18.49-4.68,24.83-13.31,48.86-26.68,70.65-3.44,5.31-7.23,10.18-11.09,14.95.14.13.26.29.4.43,14.36,13.85,30.67,27.59,48.11,41.82,4.46-4.32,8.68-8.94,12.73-13.85-5.86-31.93-6.11-59.3-.76-82.46,3.55-15.4,10.41-30.04,21.15-41.46,6.61-7.53,14.07-13.85,21.96-19.66-.09-2.95-.36-5.91-.48-8.86-10.07,6.86-20.36,13.55-31.08,19.95Z"/>
        <path class="cls-29" d="M452.12,526.52c2.08,16.88,3.53,33.88,5.09,50.85,19.73-5.71,38.99-12.43,57.58-20.51-.11-.93-.17-1.87-.28-2.8-11.05-88.89,17.33-163.16,78.44-226.44,30.61-31.71,64.71-57.77,101.17-79.98-11.93-14.59-24.13-28.54-37.24-41.18-.15-.14-.32-.28-.47-.42-19.26,10.53-37.76,22.32-55.71,35-.56,7.08-1.35,13.93-2.79,20.17-3.55,15.4-10.41,30.04-21.15,41.46-11,12.52-23.69,22.34-38.33,30.55-14.64,8.21-30.38,16.16-48.31,23.61-1.41.65-2.93,1.37-4.35,2.03-29.19,49.48-41.43,104.86-33.62,167.65Z"/>
        <path class="cls-25" d="M459.95,729.08c-25.63,12.42-52.34,21.81-80.45,26.25-1.15,2.33-2.31,4.65-3.55,6.94,14.71,18.95,29.83,36.55,46.23,52.41,3.86-4.77,7.65-9.64,11.09-14.95,13.37-21.79,22-45.82,26.68-70.65Z"/>
        <path class="cls-20" d="M656.4,206.04c-2.33-2.24-5.05-4.47-7.46-6.7-14.9,5.74-29.74,11.65-44.24,18.45-1.28.59-2.47,1.28-3.75,1.88.24,7.43.26,14.65-.27,21.37,17.95-12.68,36.45-24.47,55.71-35Z"/>
        <path class="cls-26" d="M398.26,593.34c19.6-5.25,39.4-10.31,58.95-15.97-1.56-16.97-3.01-33.97-5.09-50.85-7.81-62.8,4.43-118.17,33.62-167.65-15.62,7.18-32.11,14.95-47.77,23.01-15.59,8.9-30.98,17.94-45.15,28.01-5.7,28-7,57.58-3.09,89.09,3.85,31.32,6.48,62.85,8.52,94.37Z"/>
        <path class="cls-6" d="M371.23,756.41c1.54,2.04,3.16,3.86,4.72,5.86,1.24-2.29,2.4-4.61,3.55-6.94-2.74.43-5.5.75-8.26,1.08Z"/>
        <path class="cls-27" d="M331.81,606.61c9.35-1.77,18.79-3.28,28.2-4.9,11.38-1.96,22.73-4.11,33.82-7.19,1.47-.4,2.95-.78,4.42-1.17-2.04-31.52-4.67-63.04-8.52-94.37-3.92-31.51-2.61-61.09,3.09-89.09-1.31.93-2.76,1.76-4.05,2.71-8.3,14.84-16.09,30.18-22.93,46.42-20.32,48.07-30.9,97.37-34.03,147.59Z"/>
        <path class="cls-7" d="M326.42,677.25c1.06,2.88,1.99,5.84,3.17,8.65,1.25,2.98,2.68,5.92,4.03,8.88-.57-5.54-.89-11.06-1.29-16.58-1.98-.3-3.95-.59-5.9-.95Z"/>
        <path class="cls-2" d="M525.3,690.63c118.88-80.96,192.72-193.71,231.75-330.62-1.21-4.51-2.51-8.96-3.92-13.28-45.34,115.52-120.09,210.56-231.37,279.79,1.68,21.39,2.73,42.77,3.54,64.11Z"/>
        <path class="cls-21" d="M512.16,632.79c-16.06,9.58-32.57,18.12-49.51,25.38.24,5.76.76,11.54.93,17.29,1.3,18.07-.31,36.01-3.63,53.61,11.63-5.64,23.06-11.81,34.26-18.49,10.72-6.4,21.02-13.09,31.08-19.95-.81-21.34-1.86-42.72-3.54-64.11-3.27,2.04-6.25,4.28-9.59,6.27Z"/>
        <path class="cls-1" d="M512.16,632.79c-16.06,9.58-32.57,18.12-49.51,25.38.24,5.76.76,11.54.93,17.29,1.3,18.07-.31,36.01-3.63,53.61,11.63-5.64,23.06-11.81,34.26-18.49,10.72-6.4,21.02-13.09,31.08-19.95-.81-21.34-1.86-42.72-3.54-64.11-3.27,2.04-6.25,4.28-9.59,6.27Z"/>
        <path class="cls-33" d="M462.65,658.17c-19.83,8.5-40.34,14.99-61.63,18.68-1.83,27.33-9.34,53.85-21.52,78.47,28.1-4.43,54.82-13.83,80.45-26.25,3.32-17.59,4.93-35.54,3.63-53.61-.17-5.75-.69-11.53-.93-17.29Z"/>
        <path class="cls-24" d="M462.65,658.17c-19.83,8.5-40.34,14.99-61.63,18.68-1.83,27.33-9.34,53.85-21.52,78.47,28.1-4.43,54.82-13.83,80.45-26.25,3.32-17.59,4.93-35.54,3.63-53.61-.17-5.75-.69-11.53-.93-17.29Z"/>
        <path class="cls-37" d="M401.02,676.86c-16.11,2.8-32.63,4.16-49.71,3.32-6.46-.32-12.76-1.04-18.98-1.98.41,5.52.72,11.04,1.29,16.58,9.07,20,20.2,39.65,35.83,59.4.58.78,1.2,1.45,1.79,2.22,2.76-.34,5.53-.65,8.26-1.08,12.18-24.61,19.69-51.13,21.52-78.47Z"/>
        <path class="cls-28" d="M401.02,676.86c-16.11,2.8-32.63,4.16-49.71,3.32-6.46-.32-12.76-1.04-18.98-1.98.41,5.52.72,11.04,1.29,16.58,9.07,20,20.2,39.65,35.83,59.4.58.78,1.2,1.45,1.79,2.22,2.76-.34,5.53-.65,8.26-1.08,12.18-24.61,19.69-51.13,21.52-78.47Z"/>
        <path class="cls-23" d="M331.81,606.61c-6.1,1.15-12.03,2.82-18.02,4.32.62,23.87,5.14,45.98,12.63,66.32,1.95.37,3.92.65,5.9.95-1.78-24.06-1.99-47.93-.52-71.59Z"/>
        <path class="cls-31" d="M530.11,555.01c-4.85,2.89-9.76,5.62-14.68,8.34,2.46,21.01,4.67,42.07,6.32,63.18,111.28-69.23,186.04-164.27,231.37-279.79-.07-.21-.12-.44-.19-.65-44.76,75.64-107.86,138.62-183.43,183.09-12.66,8.94-25.67,17.64-39.39,25.84Z"/>
        <path class="cls-16" d="M462.65,658.17c16.95-7.26,33.46-15.81,49.51-25.38,3.34-1.99,6.32-4.23,9.59-6.27-1.65-21.11-3.86-42.17-6.32-63.18-18.43,10.16-37.42,18.92-57.07,25.62,1.95,23.09,3.33,46.16,4.28,69.21Z"/>
        <path class="cls-35" d="M462.65,658.17c16.95-7.26,33.46-15.81,49.51-25.38,3.34-1.99,6.32-4.23,9.59-6.27-1.65-21.11-3.86-42.17-6.32-63.18-18.43,10.16-37.42,18.92-57.07,25.62,1.95,23.09,3.33,46.16,4.28,69.21Z"/>
        <path class="cls-17" d="M458.37,588.96c-19.21,6.54-39.07,10.96-59.67,12.69.92,15.44,2.03,30.89,2.49,46.27.7,9.68.47,19.33-.18,28.94,21.29-3.7,41.8-10.19,61.63-18.68-.95-23.06-2.33-46.12-4.28-69.21Z"/>
        <path class="cls-5" d="M458.37,588.96c-19.21,6.54-39.07,10.96-59.67,12.69.92,15.44,2.03,30.89,2.49,46.27.7,9.68.47,19.33-.18,28.94,21.29-3.7,41.8-10.19,61.63-18.68-.95-23.06-2.33-46.12-4.28-69.21Z"/>
        <path class="cls-9" d="M398.7,601.65c-9.67.81-19.44,1.24-29.45.75-3.11-.15-6.18-.4-9.24-.69-9.42,1.62-18.85,3.14-28.2,4.9-1.47,23.66-1.27,47.53.52,71.59,6.21.93,12.51,1.66,18.98,1.98,17.08.84,33.6-.53,49.71-3.32.64-9.6.87-19.25.18-28.94-.46-15.38-1.57-30.84-2.49-46.27Z"/>
        <path class="cls-8" d="M398.7,601.65c-9.67.81-19.44,1.24-29.45.75-3.11-.15-6.18-.4-9.24-.69-9.42,1.62-18.85,3.14-28.2,4.9-1.47,23.66-1.27,47.53.52,71.59,6.21.93,12.51,1.66,18.98,1.98,17.08.84,33.6-.53,49.71-3.32.64-9.6.87-19.25.18-28.94-.46-15.38-1.57-30.84-2.49-46.27Z"/>
        <path class="cls-3" d="M530.11,555.01c13.73-8.19,26.73-16.89,39.39-25.84-13.98,8.22-28.32,15.89-43.11,22.81-3.77,1.82-7.77,3.21-11.61,4.88.26,2.15.4,4.33.65,6.48,4.92-2.71,9.83-5.45,14.68-8.34Z"/>
        <path class="cls-22" d="M515.43,563.34c-.25-2.15-.39-4.33-.65-6.48-18.58,8.08-37.85,14.8-57.58,20.51.35,3.87.83,7.72,1.16,11.59,19.64-6.69,38.64-15.46,57.07-25.62Z"/>
        <path class="cls-12" d="M515.43,563.34c-.25-2.15-.39-4.33-.65-6.48-18.58,8.08-37.85,14.8-57.58,20.51.35,3.87.83,7.72,1.16,11.59,19.64-6.69,38.64-15.46,57.07-25.62Z"/>
        <path class="cls-36" d="M458.37,588.96c-.33-3.87-.81-7.72-1.16-11.59-19.55,5.66-39.35,10.72-58.95,15.97.18,2.77.28,5.54.45,8.3,20.59-1.73,40.46-6.14,59.67-12.69Z"/>
        <path class="cls-32" d="M458.37,588.96c-.33-3.87-.81-7.72-1.16-11.59-19.55,5.66-39.35,10.72-58.95,15.97.18,2.77.28,5.54.45,8.3,20.59-1.73,40.46-6.14,59.67-12.69Z"/>
        <path class="cls-19" d="M398.7,601.65c-.17-2.77-.27-5.54-.45-8.3-1.47.39-2.96.77-4.42,1.17-11.09,3.08-22.44,5.23-33.82,7.19,3.06.29,6.13.53,9.24.69,10.01.49,19.78.07,29.45-.75Z"/>
        <path class="cls-14" d="M398.7,601.65c-.17-2.77-.27-5.54-.45-8.3-1.47.39-2.96.77-4.42,1.17-11.09,3.08-22.44,5.23-33.82,7.19,3.06.29,6.13.53,9.24.69,10.01.49,19.78.07,29.45-.75Z"/>
      </g>
    </g>
  </g>
</svg>
