<?xml version="1.0" encoding="utf-8"?>
<!-- Generator: Adobe Illustrator 22.0.0, SVG Export Plug-In . SVG Version: 6.00 Build 0)  -->
<svg version="1.1" id="Layer_1" xmlns="http://www.w3.org/2000/svg" xmlns:xlink="http://www.w3.org/1999/xlink" x="0px" y="0px"
	 viewBox="0 0 241 86" style="enable-background:new 0 0 241 86;" xml:space="preserve">
<style type="text/css">
	.st0{fill:#FFFFFF;}
</style>
<path class="st0" d="M69.5,18.8h1v46h-1V18.8z M24.4,38.5c-4-6.6-0.2-16.4,9-21.2c9.2-4.8,5.8-12.8,5.8-12.8s7.8,5.2,4,17.1
	c-3.7,12,2.9,13.9,2.9,13.9s-1.9-1.8-1.9-6.8c0-5,5.2-8.4,5.2-8.4c-2.7,9.7,8.4,14.5,8.4,26.1c0,11.5-12.3,15.1-12.3,15.1
	s0.3-6.8-5.5-11c-5.8-4.2-4.4-7.5-4.4-7.5c-7.4,10.8-3.2,18.5-3.2,18.5s-3.4-4.7-6.6-5.2c-3.2-0.5-5-5-5-5c-0.5,5.3,5,8.9,5,8.9
	c-25-11.6-4-28.9-4-28.9C19.3,40.5,24.4,38.5,24.4,38.5z M84,29.3h17.9l-1.5,3.1h-13v7h9.5l-1.6,3.1h-7.9v10.9H84V29.3z M98,41.4
	c0-6.5,5.4-12.5,12.2-12.5c6.7,0,12.2,6,12.2,12.5c0,6.5-5.5,12.5-12.2,12.5C103.4,53.9,98,47.9,98,41.4z M102,41.4
	c0,4.3,3.7,8.7,8.2,8.7c4.5,0,8.2-4.3,8.2-8.7c0-4.3-3.7-8.6-8.2-8.6C105.7,32.8,102,37,102,41.4z M145.7,42.2V49v0
	c0,0-0.1,1.7-0.9,2.2c-2.3,1.5-5.3,2.7-9,2.7c-6.9,0-10.9-5.2-10.9-12.5c0-7.2,5.7-12.5,10.9-12.5c6.1,0,9.2,3.3,9.2,8.3v0.2
	l-3.2-0.1v-0.2c0-3.2-2.4-4.8-5.9-4.8c-4.5,0-7.5,4.5-7.5,9.1c0,5.8,3.7,9.1,7.3,9.1c2.8,0,5.1-0.7,6.7-1.8v-3.3h-2.6l-1.5-3.2
	H145.7z M147.9,41.4c0-6.5,5.4-12.5,12.2-12.5c6.7,0,12.2,6,12.2,12.5c0,6.5-5.5,12.5-12.2,12.5C153.3,53.9,147.9,47.9,147.9,41.4z
	 M151.8,41.4c0,4.3,3.7,8.7,8.2,8.7c4.5,0,8.2-4.3,8.2-8.7c0-4.3-3.7-8.6-8.2-8.6C155.5,32.8,151.8,37,151.8,41.4z M181.8,32.3
	c-2.8,0-4.6,1.2-4.6,3.5c0,2.5,3.3,2.7,5.9,3.2c4.8,0.9,9.5,1.9,9.5,7.6c0,3.7-4.3,7.2-9,7.2c-6,0-7.9-1.1-9.8-2.4l-0.2-0.1l2.3-2.7
	h0.1c1,0.1,2.4,1.8,7.6,1.8c2.6,0,5.4-1.4,5.4-3.8c0-3.2-3.8-3.6-7-4.2c-4.2-0.8-8.4-1.7-8.4-6.6c0-3.5,3.3-6.9,8.2-6.9
	c6,0,6.7,1.1,8.6,2.4l0.2,0.1l-2.3,2.7h-0.1C187.1,34.1,187,32.3,181.8,32.3z M196.9,48.2c1.5,0,2.8,1.2,2.8,2.7
	c0,1.5-1.2,2.7-2.8,2.7c-1.5,0-2.8-1.2-2.8-2.7C194.1,49.4,195.4,48.2,196.9,48.2z M211.3,34.2c5.9,0,9.2,5,9.2,9.9
	c0,5.9-4.5,9.8-9.2,9.8c-3,0-5-1.3-6.5-3v10.7l-3.5-2.5V34.7h3.2v2.6C206.1,35.6,208.3,34.2,211.3,34.2z M211.1,50.2
	c3.7,0,5.7-3,5.7-6.1c0-3.4-2.2-6.3-5.7-6.3c-4,0-6.2,2.7-6.2,6.3C204.9,47.1,207.2,50.2,211.1,50.2z M236.3,52.2
	c-1.4,1-2.5,1.7-5.5,1.7c-5,0-7.7-2.5-7.7-7.1v-8.6h-3.4v-3.4h3.4v-7.6h3.6v7.6h8v3.4h-8v8.3c0,2.7,1.3,4.1,4.2,4.1
	c2.5,0,2.7-0.5,3.9-1.3l0.2-0.1l1.5,3L236.3,52.2z"/>
</svg>
