<?xml version="1.0" encoding="UTF-8"?>
<!DOCTYPE svg PUBLIC "-//W3C//DTD SVG 1.1//EN" "http://www.w3.org/Graphics/SVG/1.1/DTD/svg11.dtd">
<svg version="1.1" xmlns="http://www.w3.org/2000/svg" xmlns:xlink="http://www.w3.org/1999/xlink" x="0" y="0" width="223" height="80" viewBox="0, 0, 223, 80">
  <g id="Background">
    <rect x="0" y="0" width="223" height="80" fill="#000000" fill-opacity="0"/>
  </g>
  <g id="Layer_1">
    <path d="M55.952,17.3 L56.952,17.3 L56.952,63.3 L55.952,63.3 L55.952,17.3 z M10.852,37 C6.852,30.4 10.652,20.6 19.852,15.8 C29.052,11 25.652,3 25.652,3 C25.652,3 33.452,8.2 29.652,20.1 C25.952,32.1 32.552,34 32.552,34 C32.552,34 30.652,32.2 30.652,27.2 C30.652,22.2 35.852,18.8 35.852,18.8 C33.152,28.5 44.252,33.3 44.252,44.9 C44.252,56.4 31.952,60 31.952,60 C31.952,60 32.252,53.2 26.452,49 C20.652,44.8 22.052,41.5 22.052,41.5 C14.652,52.3 18.852,60 18.852,60 C18.852,60 15.452,55.3 12.252,54.8 C9.052,54.3 7.252,49.8 7.252,49.8 C6.752,55.1 12.252,58.7 12.252,58.7 C-12.748,47.1 8.252,29.8 8.252,29.8 C5.752,39 10.852,37 10.852,37 z M70.452,27.8 L88.352,27.8 L86.852,30.9 L73.852,30.9 L73.852,37.9 L83.352,37.9 L81.752,41 L73.852,41 L73.852,51.9 L70.452,51.9 L70.452,27.8 z M84.452,39.9 C84.452,33.4 89.852,27.4 96.652,27.4 C103.352,27.4 108.852,33.4 108.852,39.9 C108.852,46.4 103.352,52.4 96.652,52.4 C89.852,52.4 84.452,46.4 84.452,39.9 z M88.452,39.9 C88.452,44.2 92.152,48.6 96.652,48.6 C101.152,48.6 104.852,44.3 104.852,39.9 C104.852,35.6 101.152,31.3 96.652,31.3 C92.152,31.3 88.452,35.5 88.452,39.9 z M132.152,40.7 L132.152,47.5 L132.152,47.5 C132.152,47.5 132.052,49.2 131.252,49.7 C128.952,51.2 125.952,52.4 122.252,52.4 C115.352,52.4 111.352,47.2 111.352,39.9 C111.352,32.7 117.052,27.4 122.252,27.4 C128.352,27.4 131.452,30.7 131.452,35.7 L131.452,35.9 L128.252,35.8 L128.252,35.6 C128.252,32.4 125.852,30.8 122.352,30.8 C117.852,30.8 114.852,35.3 114.852,39.9 C114.852,45.7 118.552,49 122.152,49 C124.952,49 127.252,48.3 128.852,47.2 L128.852,43.9 L126.252,43.9 L124.752,40.7 L132.152,40.7 z M134.352,39.9 C134.352,33.4 139.752,27.4 146.552,27.4 C153.252,27.4 158.752,33.4 158.752,39.9 C158.752,46.4 153.252,52.4 146.552,52.4 C139.752,52.4 134.352,46.4 134.352,39.9 z M138.252,39.9 C138.252,44.2 141.952,48.6 146.452,48.6 C150.952,48.6 154.652,44.3 154.652,39.9 C154.652,35.6 150.952,31.3 146.452,31.3 C141.952,31.3 138.252,35.5 138.252,39.9 z M168.252,30.8 C165.452,30.8 163.652,32 163.652,34.3 C163.652,36.8 166.952,37 169.552,37.5 C174.352,38.4 179.052,39.4 179.052,45.1 C179.052,48.8 174.752,52.3 170.052,52.3 C164.052,52.3 162.152,51.2 160.252,49.9 L160.052,49.8 L162.352,47.1 L162.452,47.1 C163.452,47.2 164.852,48.9 170.052,48.9 C172.652,48.9 175.452,47.5 175.452,45.1 C175.452,41.9 171.652,41.5 168.452,40.9 C164.252,40.1 160.052,39.2 160.052,34.3 C160.052,30.8 163.352,27.4 168.252,27.4 C174.252,27.4 174.952,28.5 176.852,29.8 L177.052,29.9 L174.752,32.6 L174.652,32.6 C173.552,32.6 173.452,30.8 168.252,30.8 z M183.352,46.7 C184.852,46.7 186.152,47.9 186.152,49.4 C186.152,50.9 184.952,52.1 183.352,52.1 C181.852,52.1 180.552,50.9 180.552,49.4 C180.552,47.9 181.852,46.7 183.352,46.7 z M197.752,32.7 C203.652,32.7 206.952,37.7 206.952,42.6 C206.952,48.5 202.452,52.4 197.752,52.4 C194.752,52.4 192.752,51.1 191.252,49.4 L191.252,60.1 L187.752,57.6 L187.752,33.2 L190.952,33.2 L190.952,35.8 C192.552,34.1 194.752,32.7 197.752,32.7 z M197.552,48.7 C201.252,48.7 203.252,45.7 203.252,42.6 C203.252,39.2 201.052,36.3 197.552,36.3 C193.552,36.3 191.352,39 191.352,42.6 C191.352,45.6 193.652,48.7 197.552,48.7 z M222.752,50.7 C221.352,51.7 220.252,52.4 217.252,52.4 C212.252,52.4 209.552,49.9 209.552,45.3 L209.552,36.7 L206.152,36.7 L206.152,33.3 L209.552,33.3 L209.552,25.7 L213.152,25.7 L213.152,33.3 L221.152,33.3 L221.152,36.7 L213.152,36.7 L213.152,45 C213.152,47.7 214.452,49.1 217.352,49.1 C219.852,49.1 220.052,48.6 221.252,47.8 L221.452,47.7 L222.952,50.7 L222.752,50.7 z" fill="#FFFFFF"/>
  </g>
</svg>
