<?xml version="1.0" encoding="UTF-8"?>
<svg id="Layer_2" data-name="Layer 2" xmlns="http://www.w3.org/2000/svg" xmlns:xlink="http://www.w3.org/1999/xlink" viewBox="0 0 2064.96 512">
  <defs>
    <style>
      .cls-1 {
        fill: url(#linear-gradient-15);
      }

      .cls-2 {
        fill: url(#linear-gradient-13);
      }

      .cls-3 {
        fill: url(#linear-gradient-28);
      }

      .cls-4 {
        fill: url(#linear-gradient-2);
      }

      .cls-5 {
        fill: url(#linear-gradient-25);
      }

      .cls-6 {
        fill: url(#linear-gradient-10);
      }

      .cls-7 {
        fill: url(#linear-gradient-12);
      }

      .cls-8 {
        fill: url(#linear-gradient-27);
      }

      .cls-9 {
        fill: url(#linear-gradient-26);
      }

      .cls-10 {
        fill: url(#linear-gradient-4);
      }

      .cls-11 {
        fill: url(#linear-gradient-30);
      }

      .cls-12 {
        fill: url(#linear-gradient-3);
      }

      .cls-13 {
        fill: url(#linear-gradient-34);
      }

      .cls-14 {
        fill: url(#linear-gradient-5);
      }

      .cls-15 {
        fill: url(#linear-gradient-22);
      }

      .cls-16 {
        fill: url(#linear-gradient-24);
      }

      .cls-17 {
        fill: #ffffff;
      }

      .cls-18 {
        fill: url(#linear-gradient-33);
      }

      .cls-19 {
        fill: url(#linear-gradient-8);
      }

      .cls-20 {
        fill: url(#linear-gradient-14);
      }

      .cls-21 {
        fill: url(#linear-gradient-29);
      }

      .cls-22 {
        fill: url(#linear-gradient-20);
      }

      .cls-23 {
        fill: url(#linear-gradient-17);
      }

      .cls-24 {
        fill: url(#linear-gradient-7);
      }

      .cls-25 {
        fill: url(#linear-gradient-9);
      }

      .cls-26 {
        fill: url(#linear-gradient-11);
      }

      .cls-27 {
        fill: url(#linear-gradient-19);
      }

      .cls-28 {
        fill: url(#linear-gradient-6);
      }

      .cls-29 {
        fill: #f5b167;
      }

      .cls-30 {
        fill: url(#linear-gradient-21);
      }

      .cls-31 {
        fill: url(#linear-gradient-32);
      }

      .cls-32 {
        fill: url(#linear-gradient-16);
      }

      .cls-33 {
        fill: url(#linear-gradient);
      }

      .cls-34 {
        fill: url(#linear-gradient-23);
      }

      .cls-35 {
        fill: url(#linear-gradient-31);
      }

      .cls-36 {
        fill: url(#linear-gradient-18);
      }
    </style>
    <linearGradient id="linear-gradient" x1="540.12" y1="327.57" x2="555.4" y2="327.57" gradientTransform="translate(-19.34 56.31) rotate(12.99)" gradientUnits="userSpaceOnUse">
      <stop offset="0" stop-color="#f5b167"/>
      <stop offset="1" stop-color="#f05d55"/>
    </linearGradient>
    <linearGradient id="linear-gradient-2" x1="551.3" y1="77.46" x2="683.09" y2="77.46" xlink:href="#linear-gradient"/>
    <linearGradient id="linear-gradient-3" x1="383.01" y1="111.18" x2="413.06" y2="111.18" xlink:href="#linear-gradient"/>
    <linearGradient id="linear-gradient-4" x1="509.86" y1="-4.5" x2="653.34" y2="-4.5" xlink:href="#linear-gradient"/>
    <linearGradient id="linear-gradient-5" x1="495.14" y1="268.35" x2="665.6" y2="268.35" xlink:href="#linear-gradient"/>
    <linearGradient id="linear-gradient-6" x1="495.14" y1="-4.19" x2="665.6" y2="-4.19" xlink:href="#linear-gradient"/>
    <linearGradient id="linear-gradient-7" x1="511.67" y1="112.87" x2="482.33" y2="295.15" xlink:href="#linear-gradient"/>
    <linearGradient id="linear-gradient-8" x1="506.19" y1="111.99" x2="476.85" y2="294.27" xlink:href="#linear-gradient"/>
    <linearGradient id="linear-gradient-9" x1="448.38" y1="102.68" x2="419.03" y2="284.96" xlink:href="#linear-gradient"/>
    <linearGradient id="linear-gradient-10" x1="399.98" y1="277.14" x2="465.56" y2="277.14" xlink:href="#linear-gradient"/>
    <linearGradient id="linear-gradient-11" x1="399.98" y1="107.01" x2="465.56" y2="107.01" xlink:href="#linear-gradient"/>
    <linearGradient id="linear-gradient-12" x1="369.05" y1="281.59" x2="698.32" y2="-47.68" gradientTransform="translate(-19.34 56.31) rotate(12.99)" gradientUnits="userSpaceOnUse">
      <stop offset="0" stop-color="#f5b167"/>
      <stop offset="1" stop-color="#f79d66"/>
    </linearGradient>
    <linearGradient id="linear-gradient-13" x1="380.04" y1="292.58" x2="709.31" y2="-36.69" xlink:href="#linear-gradient-12"/>
    <linearGradient id="linear-gradient-14" x1="495.14" y1="203.37" x2="665.6" y2="203.37" xlink:href="#linear-gradient"/>
    <linearGradient id="linear-gradient-15" x1="407.71" y1="320.24" x2="736.98" y2="-9.03" xlink:href="#linear-gradient-12"/>
    <linearGradient id="linear-gradient-16" x1="506.98" y1="112.11" x2="477.63" y2="294.39" xlink:href="#linear-gradient"/>
    <linearGradient id="linear-gradient-17" x1="402.86" y1="315.39" x2="732.12" y2="-13.88" xlink:href="#linear-gradient-12"/>
    <linearGradient id="linear-gradient-18" x1="399.98" y1="246.76" x2="465.56" y2="246.76" xlink:href="#linear-gradient"/>
    <linearGradient id="linear-gradient-19" x1="388.95" y1="301.48" x2="718.22" y2="-27.79" xlink:href="#linear-gradient-12"/>
    <linearGradient id="linear-gradient-20" x1="356.59" y1="204.37" x2="653.99" y2="204.37" xlink:href="#linear-gradient"/>
    <linearGradient id="linear-gradient-21" x1="356.59" y1="48.17" x2="653.99" y2="48.17" xlink:href="#linear-gradient"/>
    <linearGradient id="linear-gradient-22" x1="495.14" y1="157.48" x2="665.6" y2="157.48" xlink:href="#linear-gradient"/>
    <linearGradient id="linear-gradient-23" x1="356.59" y1="157.48" x2="653.99" y2="157.48" xlink:href="#linear-gradient"/>
    <linearGradient id="linear-gradient-24" x1="487.88" y1="109.04" x2="458.54" y2="291.32" xlink:href="#linear-gradient"/>
    <linearGradient id="linear-gradient-25" x1="356.59" y1="182.17" x2="653.99" y2="182.17" xlink:href="#linear-gradient"/>
    <linearGradient id="linear-gradient-26" x1="399.98" y1="197.2" x2="465.56" y2="197.2" xlink:href="#linear-gradient"/>
    <linearGradient id="linear-gradient-27" x1="356.59" y1="197.2" x2="653.99" y2="197.2" xlink:href="#linear-gradient"/>
    <linearGradient id="linear-gradient-28" x1="423.31" y1="104.55" x2="556.09" y2="104.55" xlink:href="#linear-gradient"/>
    <linearGradient id="linear-gradient-29" x1="495.14" y1="131.8" x2="665.6" y2="131.8" xlink:href="#linear-gradient"/>
    <linearGradient id="linear-gradient-30" x1="423.31" y1="131.8" x2="556.09" y2="131.8" xlink:href="#linear-gradient"/>
    <linearGradient id="linear-gradient-31" x1="476.16" y1="107.15" x2="446.81" y2="289.43" xlink:href="#linear-gradient"/>
    <linearGradient id="linear-gradient-32" x1="423.31" y1="152.55" x2="556.09" y2="152.55" xlink:href="#linear-gradient"/>
    <linearGradient id="linear-gradient-33" x1="399.98" y1="165.83" x2="465.56" y2="165.83" xlink:href="#linear-gradient"/>
    <linearGradient id="linear-gradient-34" x1="423.31" y1="165.83" x2="556.09" y2="165.83" xlink:href="#linear-gradient"/>
  </defs>
  <g id="Logo_in-app" data-name="Logo in-app">
    <g id="PRETO">
      <g>
        <path class="cls-17" d="M154.22,354.28c-3.9.4-8.58.68-14.02.88-5.46.2-10.91.87-16.35,2.04l-4.09,123.84v20.44c-16.36,1.95-40.12,2.93-71.27,2.93-26.87,0-43.03-1.96-48.49-5.85l.59-95.22v-76.52c.38-40.89.58-116.25.58-226.07,16.74-2.72,40.99-5.25,72.73-7.59,31.74-2.34,62.21-3.51,91.42-3.51,47.9,0,86.06,3.51,114.49,10.52v11.1c0,1.57.1,4.77.29,9.64.19,4.88.48,15.68.87,32.42,0,13.63-.39,25.91-1.17,36.8l-42.64,2.34-21.61,1.16-10.52.59-31.55,1.75c-22.2.79-38.94,1.76-50.24,2.92l-1.75,4.09c-1.17,3.51-1.75,8.58-1.75,15.19,0,6.24.38,12.37,1.17,18.4.77,6.05,1.55,9.64,2.33,10.81,9.74,1.17,19.08,1.75,28.04,1.75,17.91,0,33.69-.97,47.32-2.92,1.95,4.29,2.92,12.46,2.92,24.54v11.68l-.58,14.02-.59,11.1v11.11c0,8.18.39,17.33,1.17,27.45,0,1.96-3.12,3.32-9.35,4.09-5.07.79-17.72,2.15-37.96,4.09Z"/>
        <path class="cls-17" d="M548.52,226.94l-.58,10.51v10.52c-.79,12.85-1.17,31.75-1.17,56.67,0,27.66-.59,48.69-1.75,63.09l-1.76,19.27c-1.95,31.55-9.93,58.42-23.95,80.62-5.84,8.18-14.6,15.38-26.29,21.61-11.68,6.24-24.53,11.3-38.55,15.19-14.4,4.28-31.35,6.42-50.82,6.42-8.97,0-15.18-.2-18.69-.58-19.08-1.56-36.13-5.75-51.11-12.56-14.99-6.81-25.99-16.84-33-30.08-9.35-17.52-14.41-39.52-15.19-66.01l-1.17-18.69c-.39-3.11-.58-9.54-.58-19.28-1.96-31.93-2.92-62.5-2.92-91.71,0-17.9.58-35.83,1.75-53.74,1.17-19.47,4.57-38.46,10.22-56.95,5.65-18.49,14.32-34.76,25.99-48.78l12.85-7.01c24.92-12.07,52.18-18.11,81.79-18.11,18.69,0,36.3,2.44,52.86,7.3,16.54,4.88,31.05,11.98,43.52,21.33,13.62,12.46,22.58,24.74,26.87,36.8,4.68,12.46,7.98,24.92,9.94,37.38,1.17,12.07,1.75,24.34,1.75,36.8ZM456.23,253.81l-2.34-30.38c-.79-10.9-3.41-20.54-7.88-28.91-4.49-8.38-10.23-14.32-17.24-17.82-3.12-1.17-6.24-1.76-9.35-1.76-9.35,0-18.5,3.13-27.46,9.35-4.67,3.9-9.25,9.45-13.73,16.65-4.48,7.22-7.88,14.52-10.22,21.91-3.9,17.14-5.84,38.95-5.84,65.43,0,13.24.19,23.17.58,29.79v-.58c1.56,7.8,2.72,18.1,3.51,30.96l.58,8.18c1.56,19.48,3.7,33.89,6.43,43.23v-.59c3.51,7.8,8.66,13.73,15.48,17.82,6.82,4.09,14.12,6.13,21.91,6.13,6.23,0,12.56-1.45,18.99-4.37,6.43-2.93,11.98-7.1,16.65-12.56,3.89-5.06,6.33-9.35,7.3-12.85.97-3.51,1.46-8.96,1.46-16.35,0-6.62.19-11.49.58-14.6l.59-7.6.58-11.1v-8.19l.59-11.1v-28.04l-1.17-39.72v-2.92Z"/>
        <path class="cls-17" d="M798.54,290.02l18.69,1.17,9.94.58,1.16,12.27c.39,4.29,1.17,13.53,2.34,27.74,1.17,14.22,1.76,26.38,1.76,36.51,0,19.86-1.57,39.53-4.68,59-2.73,17.53-9.55,32.34-20.44,44.4-10.91,12.07-24.74,21.23-41.48,27.46-28.43,8.56-54.72,12.84-78.86,12.84-18.69,0-35.63-2.92-50.82-8.76-30.77-13.63-50.83-37.39-60.17-71.27-2.73-10.52-5.06-24.14-7.01-40.89,0,4.29-2.14-30.57-6.43-104.57,0-12.46.19-22.38.59-29.79.77-35.05,2.72-60.75,5.84-77.11,5.45-31.16,18.11-54.13,37.97-68.93,14.79-10.9,35.05-18.3,60.74-22.2,8.96-1.17,18.11-1.75,27.46-1.75,38.94,0,70.88,9.84,95.8,29.5,24.92,19.66,37.38,47.61,37.38,83.82l-1.16,18.69v8.19c-2.73.39-6.05.58-9.94.58h-38.55c-14.8,0-29.02-.78-42.64-2.34-9.35-31.93-19.86-47.9-31.55-47.9-1.95,0-4.09-.19-6.43-.58-2.33-.39-4.48-.59-6.42-.59-6.24,0-11.68,2.34-16.36,7.02-.39.39-1.75,5.06-4.09,14.01-7.4,24.54-11.1,60.75-11.1,108.65,0,23.76.77,43.43,2.34,59,2.72,26.1,7.98,42.64,15.76,49.66,3.89,2.34,7.02,3.9,9.35,4.67,4.29.4,9.44.1,15.49-.87,6.03-.97,11.39-2.42,16.06-4.38,6.62-2.72,10.9-8.95,12.85-18.69,1.17-4.67,2.34-10.71,3.51-18.1,1.16-7.4,1.55-11.88,1.16-13.44h-14.01c-14.41.79-25.51-.38-33.3-3.5-.79-8.18-1.17-18.3-1.17-30.38v-6.43c0-1.55.09-4.18.29-7.88.19-3.7-.29-10.81-1.46-21.33,3.11,0,9.73-.77,19.86-2.34,15.57-2.72,27.26-4.09,35.05-4.09,16.74,0,35.63.79,56.67,2.34Z"/>
        <path class="cls-17" d="M1111.63,226.94l-.58,10.51v10.52c-.79,12.85-1.17,31.75-1.17,56.67,0,27.66-.59,48.69-1.75,63.09l-1.76,19.27c-1.95,31.55-9.93,58.42-23.95,80.62-5.84,8.18-14.6,15.38-26.29,21.61-11.68,6.24-24.53,11.3-38.55,15.19-14.4,4.28-31.35,6.42-50.82,6.42-8.97,0-15.18-.2-18.69-.58-19.08-1.56-36.13-5.75-51.11-12.56-14.99-6.81-25.99-16.84-33-30.08-9.35-17.52-14.41-39.52-15.19-66.01l-1.17-18.69c-.39-3.11-.58-9.54-.58-19.28-1.96-31.93-2.92-62.5-2.92-91.71,0-17.9.58-35.83,1.75-53.74,1.17-19.47,4.57-38.46,10.22-56.95,5.65-18.49,14.32-34.76,25.99-48.78l12.85-7.01c24.92-12.07,52.18-18.11,81.79-18.11,18.69,0,36.3,2.44,52.86,7.3,16.54,4.88,31.05,11.98,43.52,21.33,13.62,12.46,22.58,24.74,26.87,36.8,4.68,12.46,7.98,24.92,9.94,37.38,1.17,12.07,1.75,24.34,1.75,36.8ZM1019.34,253.81l-2.34-30.38c-.79-10.9-3.41-20.54-7.88-28.91-4.49-8.38-10.23-14.32-17.24-17.82-3.12-1.17-6.24-1.76-9.35-1.76-9.35,0-18.5,3.13-27.46,9.35-4.67,3.9-9.25,9.45-13.73,16.65-4.48,7.22-7.88,14.52-10.22,21.91-3.9,17.14-5.84,38.95-5.84,65.43,0,13.24.19,23.17.58,29.79v-.58c1.56,7.8,2.72,18.1,3.51,30.96l.58,8.18c1.56,19.48,3.7,33.89,6.43,43.23v-.59c3.51,7.8,8.66,13.73,15.48,17.82,6.82,4.09,14.12,6.13,21.91,6.13,6.23,0,12.56-1.45,18.99-4.37,6.43-2.93,11.98-7.1,16.65-12.56,3.89-5.06,6.33-9.35,7.3-12.85s1.46-8.96,1.46-16.35c0-6.62.19-11.49.58-14.6l.59-7.6.58-11.1v-8.19l.59-11.1v-28.04l-1.17-39.72v-2.92Z"/>
        <path class="cls-17" d="M1341.79,229.86c-19.08,0-35.83-2.14-50.24-6.43.78-3.89,1.17-6.62,1.17-8.18,0-8.96-3.31-16.36-9.93-22.2-6.63-5.84-14.02-8.77-22.2-8.77-5.84,0-11.01,1.85-15.48,5.55-4.49,3.71-7.11,9.26-7.89,16.65-1.17,3.51-1.75,6.63-1.75,9.35l.58,5.26v1.17c2.73,8.18,6.72,13.82,11.98,16.94,5.26,3.12,11.58,5.26,18.99,6.43,19.46,2.73,39.13,9.93,59,21.61,19.86,11.68,35.83,25.32,47.9,40.89,7.4,10.13,13.23,21.32,17.52,33.58,4.29,12.27,6.43,24.24,6.43,35.93,0,20.25-4.48,39.92-13.43,59-10.13,21.82-25.7,38.76-46.73,50.83-21.03,12.07-44.01,18.1-68.93,18.1s-49.94-4.96-73.89-14.89c-23.95-9.94-43.33-24.24-58.12-42.94-14.8-18.69-21.42-40.31-19.86-64.84v-5.26c11.29-1.94,23.75-2.92,37.38-2.92,11.68,0,21.61.2,29.79.58,7.4.4,20.64.59,39.72.59.39,11.68,3.99,20.83,10.81,27.45,6.81,6.63,14.69,9.94,23.66,9.94,7.79,0,14.31-2.53,19.57-7.6,5.26-5.06,7.89-12.26,7.89-21.61,0-3.51-.2-6.23-.59-8.18-1.95-14.4-8.76-24.54-20.44-30.38-11.68-5.85-27.46-10.71-47.32-14.6l-8.76-1.75c-16.75-3.12-31.36-9.94-43.81-20.45-14.02-13.62-24.54-28.23-31.55-43.81-7.01-15.57-10.52-31.15-10.52-46.73,0-25.31,7.68-49.16,23.08-71.56,15.38-22.39,35.34-38.65,59.88-48.78,15.18-6.22,34.07-9.35,56.66-9.35,29.21,0,55.88,5.46,80.04,16.36,17.9,9.35,32.13,21.61,42.64,36.79,10.52,15.19,15.77,33.11,15.77,53.75,0,7.8-1.17,17.91-3.51,30.38h-7.01c-16.36,2.73-32.53,4.09-48.49,4.09Z"/>
        <path class="cls-17" d="M1411.29,469.36l.58-14.01v-11.68l.59-7.02v-5.84c10.52-4.67,26.67-7.01,48.48-7.01s34.27,1.37,39.72,4.09c.39.39.78,1.56,1.17,3.51.39,1.95.59,4.09.59,6.42,0,3.13-.4,10.14-1.17,21.03l-3.51,43.81-84.11-.58c-1.56-9.35-2.34-20.25-2.34-32.72Z"/>
        <path class="cls-17" d="M1803.25,229.27c-2.73,22.2-11.3,42.64-25.7,61.33-14.41,18.7-32.34,33.4-53.75,44.11-21.42,10.72-44.01,16.07-67.76,16.07-1.17,0-2.73.1-4.67.29-1.96.2-4.29.1-7.02-.29.39,4.67.48,9.35.29,14.01-.2,4.68-.29,8.97-.29,12.85v118.58l-6.42.59c-10.52,3.11-28.83,4.67-54.92,4.67-19.47,0-37.38-.97-53.74-2.92-1.56-37.76-2.34-103.4-2.34-196.86v-70.68c0-63.47-.58-109.62-1.75-138.45,29.98-8.56,61.33-12.84,94.05-12.84,50.23,0,92.97,10.61,128.22,31.83,35.24,21.23,54.03,55.01,56.37,101.35v.58c0,7.41-.21,12.66-.59,15.77ZM1667.73,176.7c-7.41-1.56-14.9-2.43-22.49-2.63-7.6-.19-13.35-.29-17.24-.29.38,6.24.59,16.75.59,31.55v5.26c0,11.68.29,21.33.87,28.91.58,7.6,1.84,14.32,3.79,20.16h25.41c8.76,0,16.35-1.17,22.78-3.5,6.43-2.34,11.39-6.23,14.9-11.68,3.89-6.62,5.84-14.21,5.84-22.78,0-10.52-3.12-20.25-9.35-29.21l-4.68-5.26c-6.23-5.46-13.04-8.96-20.44-10.52Z"/>
        <path class="cls-17" d="M2064.96,128.21c0,22.59-1.37,42.84-4.1,60.75-12.84-2.34-22.98-3.51-30.37-3.51l-27.46-.58c-10.14,0-15.19.58-15.19,1.75-.78,5.46-1.16,16.94-1.16,34.47,0,34.28,1.36,126.57,4.09,276.89-11.3,1.94-24.54,2.92-39.72,2.92h-16.94c-19.48,0-37.38,1.36-53.74,4.09-1.17-1.95-2.05-5.93-2.63-11.98-.58-6.03-.68-11.58-.29-16.65v-28.62l.59-52.58c0-70.87-1.56-139.99-4.68-207.37-4.29-1.94-10.33-2.92-18.1-2.92l-23.37.58c-13.24,0-22.78-.96-28.63-2.92-1.16-2.34-2.13-8.77-2.92-19.27-.77-10.52-1.17-22.39-1.17-35.63,0-19.47.2-33.5.59-42.06h25.12l22.78-.58h32.72l33.88-.59c58.03,0,105.34,2.15,141.95,6.43h7.6c.77,13.24,1.17,25.7,1.17,37.38Z"/>
      </g>
      <g>
        <path class="cls-33" d="M444.57,508.94l1.56.36c-1.83-6.92-3.2-13.45-4.37-19.83-2.86,3.48-5.84,6.74-9,9.79,3.94,3.22,7.62,6.32,11.81,9.67Z"/>
        <path class="cls-4" d="M517.43,363.58c11.9-5.44,24.76-11.49,36.85-17.71,12.26-7,24.53-14,35.41-22.13,10.89-8.14,20.76-18.96,29.43-31.71,8.67-12.74,14.78-28.53,18.54-44.86,4.85-21,6.4-41.93,4.49-62.03-1.27-13.37-3.82-25.54-6.95-37.17-27.59,96.79-79.8,176.49-163.84,233.73.08,2.08.27,4.18.34,6.26,3.7-2.72,7.45-5.38,11.57-7.7,10.35-5.8,21.48-11.43,34.16-16.69Z"/>
        <path class="cls-12" d="M358.63,217.96c4.84-11.48,10.35-22.32,16.21-32.82-.2.15-.43.27-.62.42-10.89,8.14-20.76,18.96-29.43,31.71-8.67,12.74-14.78,28.53-18.54,44.86-4.84,21-6.4,41.93-4.48,62.03,0,.41.07.79.08,1.2,4.23-1.06,8.43-2.24,12.74-3.05,2.21-35.5,9.69-70.36,24.05-104.34Z"/>
        <path class="cls-10" d="M463.73,285.15c.08.66.12,1.32.2,1.98,2.72-1.18,5.54-2.16,8.21-3.45,10.45-4.89,20.6-10.31,30.48-16.13,53.42-31.44,98.03-75.96,129.68-129.44-.79-2.39-1.3-5.05-2.17-7.36-6.88-16.33-15.49-32.24-28.18-48.27-3.67-4.89-7.48-9.36-11.24-13.96-25.77,15.7-49.88,34.12-71.52,56.54-43.2,44.73-63.26,97.24-55.45,160.08Z"/>
        <path class="cls-29" d="M558.77,34.38c-12.05-11.16-25.19-22.19-40.22-34.2l-.78-.18c4.33,17.95,6.6,34.17,7.07,48.75.9-.42,1.74-.91,2.65-1.33,10.25-4.8,20.74-8.99,31.27-13.04Z"/>
        <path class="cls-14" d="M449.39,395.8c-7.92,4.72-16,9.09-24.22,13.07-3.31,17.55-9.41,34.54-18.86,49.95-2.43,3.75-5.11,7.2-7.84,10.57.1.1.19.21.29.3,10.15,9.79,21.68,19.51,34.01,29.57,3.16-3.06,6.14-6.32,9-9.79-4.14-22.57-4.32-41.92-.54-58.3,2.51-10.89,7.36-21.24,14.95-29.31,4.68-5.32,9.94-9.79,15.52-13.9-.07-2.08-.26-4.18-.34-6.26-7.12,4.85-14.4,9.58-21.97,14.1Z"/>
        <path class="cls-28" d="M419.63,265.68c1.47,11.94,2.5,23.95,3.6,35.95,13.95-4.04,27.57-8.78,40.7-14.5-.08-.66-.12-1.32-.2-1.98-7.81-62.84,12.25-115.35,55.45-160.08,21.64-22.42,45.75-40.84,71.52-56.54-8.44-10.31-17.06-20.17-26.33-29.11-.1-.1-.23-.2-.33-.3-13.62,7.45-26.7,15.78-39.39,24.74-.39,5-.96,9.85-1.97,14.26-2.51,10.89-7.36,21.24-14.95,29.31-7.78,8.85-16.75,15.79-27.1,21.59-10.35,5.8-21.47,11.43-34.16,16.69-1,.46-2.07.97-3.08,1.44-20.64,34.98-29.29,74.13-23.77,118.52Z"/>
        <path class="cls-24" d="M425.16,408.88c-18.12,8.78-37,15.42-56.87,18.56-.81,1.65-1.63,3.29-2.51,4.91,10.4,13.4,21.09,25.84,32.68,37.05,2.73-3.37,5.41-6.82,7.84-10.57,9.45-15.41,15.55-32.39,18.86-49.95Z"/>
        <path class="cls-19" d="M564.05,39.12c-1.65-1.59-3.57-3.16-5.27-4.74-10.53,4.06-21.02,8.24-31.27,13.04-.91.42-1.75.9-2.65,1.33.17,5.25.18,10.36-.19,15.11,12.69-8.96,25.77-17.3,39.39-24.74Z"/>
        <path class="cls-25" d="M381.55,312.92c13.85-3.71,27.85-7.29,41.68-11.29-1.1-12-2.13-24.01-3.6-35.95-5.52-44.39,3.13-83.54,23.77-118.52-11.04,5.08-22.7,10.57-33.77,16.27-11.02,6.29-21.9,12.69-31.92,19.8-4.03,19.79-4.95,40.7-2.18,62.98,2.72,22.14,4.58,44.43,6.02,66.71Z"/>
        <path class="cls-6" d="M362.45,428.2c1.09,1.44,2.23,2.73,3.33,4.14.88-1.62,1.69-3.26,2.51-4.91-1.93.31-3.89.53-5.84.77Z"/>
        <path class="cls-26" d="M334.58,322.3c6.61-1.25,13.28-2.32,19.94-3.47,8.05-1.39,16.07-2.91,23.91-5.08,1.04-.28,2.09-.55,3.13-.83-1.44-22.28-3.3-44.57-6.02-66.71-2.77-22.28-1.85-43.19,2.18-62.98-.93.66-1.95,1.24-2.87,1.92-5.87,10.49-11.37,21.33-16.21,32.82-14.36,33.98-21.84,68.84-24.05,104.34Z"/>
        <path class="cls-7" d="M330.77,372.24c.75,2.04,1.4,4.13,2.24,6.11.89,2.1,1.9,4.19,2.85,6.28-.4-3.92-.63-7.82-.91-11.72-1.4-.21-2.8-.41-4.17-.67Z"/>
        <path class="cls-2" d="M471.36,381.7c84.04-57.24,136.24-136.95,163.84-233.73-.86-3.19-1.77-6.33-2.77-9.39-32.05,81.67-84.9,148.85-163.57,197.8,1.19,15.12,1.93,30.24,2.5,45.33Z"/>
        <path class="cls-20" d="M462.08,340.81c-11.35,6.77-23.02,12.81-35,17.94.17,4.07.54,8.16.66,12.22.92,12.77-.22,25.46-2.57,37.9,8.22-3.98,16.3-8.35,24.22-13.07,7.58-4.52,14.86-9.25,21.97-14.1-.57-15.09-1.32-30.2-2.5-45.33-2.31,1.44-4.42,3.03-6.78,4.43Z"/>
        <path class="cls-1" d="M462.08,340.81c-11.35,6.77-23.02,12.81-35,17.94.17,4.07.54,8.16.66,12.22.92,12.77-.22,25.46-2.57,37.9,8.22-3.98,16.3-8.35,24.22-13.07,7.58-4.52,14.86-9.25,21.97-14.1-.57-15.09-1.32-30.2-2.5-45.33-2.31,1.44-4.42,3.03-6.78,4.43Z"/>
        <path class="cls-32" d="M427.07,358.75c-14.02,6.01-28.52,10.59-43.57,13.21-1.29,19.32-6.6,38.07-15.21,55.47,19.87-3.13,38.76-9.77,56.87-18.56,2.35-12.44,3.49-25.12,2.57-37.9-.12-4.06-.49-8.15-.66-12.22Z"/>
        <path class="cls-23" d="M427.07,358.75c-14.02,6.01-28.52,10.59-43.57,13.21-1.29,19.32-6.6,38.07-15.21,55.47,19.87-3.13,38.76-9.77,56.87-18.56,2.35-12.44,3.49-25.12,2.57-37.9-.12-4.06-.49-8.15-.66-12.22Z"/>
        <path class="cls-36" d="M383.5,371.96c-11.39,1.98-23.07,2.94-35.15,2.35-4.57-.22-9.02-.74-13.42-1.4.29,3.91.51,7.8.91,11.72,6.42,14.14,14.28,28.03,25.33,41.99.41.55.85,1.02,1.26,1.57,1.95-.24,3.91-.46,5.84-.77,8.61-17.4,13.92-36.15,15.21-55.47Z"/>
        <path class="cls-27" d="M383.5,371.96c-11.39,1.98-23.07,2.94-35.15,2.35-4.57-.22-9.02-.74-13.42-1.4.29,3.91.51,7.8.91,11.72,6.42,14.14,14.28,28.03,25.33,41.99.41.55.85,1.02,1.26,1.57,1.95-.24,3.91-.46,5.84-.77,8.61-17.4,13.92-36.15,15.21-55.47Z"/>
        <path class="cls-22" d="M334.58,322.3c-4.31.81-8.5,2-12.74,3.05.44,16.88,3.64,32.5,8.93,46.89,1.38.26,2.77.46,4.17.67-1.26-17.01-1.41-33.88-.36-50.61Z"/>
        <path class="cls-30" d="M474.76,285.82c-3.43,2.04-6.9,3.98-10.38,5.89,1.74,14.85,3.3,29.74,4.47,44.66,78.67-48.94,131.52-116.13,163.57-197.8-.05-.15-.09-.31-.14-.46-31.64,53.47-76.25,98-129.68,129.44-8.95,6.32-18.15,12.47-27.85,18.26Z"/>
        <path class="cls-15" d="M427.07,358.75c11.98-5.13,23.65-11.18,35-17.94,2.36-1.41,4.47-2.99,6.78-4.43-1.17-14.92-2.73-29.81-4.47-44.66-13.03,7.18-26.46,13.38-40.34,18.11,1.38,16.32,2.35,32.63,3.03,48.93Z"/>
        <path class="cls-34" d="M427.07,358.75c11.98-5.13,23.65-11.18,35-17.94,2.36-1.41,4.47-2.99,6.78-4.43-1.17-14.92-2.73-29.81-4.47-44.66-13.03,7.18-26.46,13.38-40.34,18.11,1.38,16.32,2.35,32.63,3.03,48.93Z"/>
        <path class="cls-16" d="M424.05,309.82c-13.58,4.63-27.62,7.75-42.18,8.97.65,10.91,1.43,21.84,1.76,32.71.49,6.84.33,13.67-.12,20.46,15.05-2.61,29.55-7.2,43.57-13.21-.67-16.3-1.65-32.61-3.03-48.93Z"/>
        <path class="cls-5" d="M424.05,309.82c-13.58,4.63-27.62,7.75-42.18,8.97.65,10.91,1.43,21.84,1.76,32.71.49,6.84.33,13.67-.12,20.46,15.05-2.61,29.55-7.2,43.57-13.21-.67-16.3-1.65-32.61-3.03-48.93Z"/>
        <path class="cls-9" d="M381.86,318.79c-6.84.57-13.74.87-20.82.53-2.2-.11-4.37-.28-6.53-.48-6.66,1.15-13.33,2.22-19.94,3.47-1.04,16.73-.9,33.6.36,50.61,4.39.66,8.85,1.17,13.42,1.4,12.08.59,23.75-.37,35.15-2.35.45-6.79.62-13.61.12-20.46-.33-10.88-1.11-21.8-1.76-32.71Z"/>
        <path class="cls-8" d="M381.86,318.79c-6.84.57-13.74.87-20.82.53-2.2-.11-4.37-.28-6.53-.48-6.66,1.15-13.33,2.22-19.94,3.47-1.04,16.73-.9,33.6.36,50.61,4.39.66,8.85,1.17,13.42,1.4,12.08.59,23.75-.37,35.15-2.35.45-6.79.62-13.61.12-20.46-.33-10.88-1.11-21.8-1.76-32.71Z"/>
        <path class="cls-3" d="M474.76,285.82c9.7-5.79,18.9-11.94,27.85-18.26-9.88,5.81-20.02,11.23-30.48,16.13-2.67,1.29-5.49,2.27-8.21,3.45.18,1.52.28,3.06.46,4.58,3.48-1.92,6.95-3.85,10.38-5.89Z"/>
        <path class="cls-21" d="M464.39,291.71c-.18-1.52-.27-3.06-.46-4.58-13.14,5.71-26.76,10.46-40.7,14.5.25,2.73.59,5.46.82,8.19,13.89-4.73,27.31-10.93,40.34-18.11Z"/>
        <path class="cls-11" d="M464.39,291.71c-.18-1.52-.27-3.06-.46-4.58-13.14,5.71-26.76,10.46-40.7,14.5.25,2.73.59,5.46.82,8.19,13.89-4.73,27.31-10.93,40.34-18.11Z"/>
        <path class="cls-35" d="M424.05,309.82c-.23-2.74-.57-5.46-.82-8.19-13.82,4-27.82,7.58-41.68,11.29.13,1.96.2,3.91.32,5.87,14.56-1.22,28.6-4.34,42.18-8.97Z"/>
        <path class="cls-31" d="M424.05,309.82c-.23-2.74-.57-5.46-.82-8.19-13.82,4-27.82,7.58-41.68,11.29.13,1.96.2,3.91.32,5.87,14.56-1.22,28.6-4.34,42.18-8.97Z"/>
        <path class="cls-18" d="M381.86,318.79c-.12-1.96-.19-3.91-.32-5.87-1.04.28-2.09.55-3.13.83-7.84,2.18-15.86,3.7-23.91,5.08,2.16.2,4.33.38,6.53.48,7.08.35,13.98.05,20.82-.53Z"/>
        <path class="cls-13" d="M381.86,318.79c-.12-1.96-.19-3.91-.32-5.87-1.04.28-2.09.55-3.13.83-7.84,2.18-15.86,3.7-23.91,5.08,2.16.2,4.33.38,6.53.48,7.08.35,13.98.05,20.82-.53Z"/>
      </g>
    </g>
  </g>
</svg>
