<?xml version="1.0" encoding="UTF-8"?>
<svg id="Layer_1" xmlns="http://www.w3.org/2000/svg" version="1.1" viewBox="0 0 100 100">
  <g id="Background">
    <rect fill-opacity="0" y="0" width="100" height="100"/>
  </g>
  <path fill="#ff512f" d="M90,83.3c0,1.8-1.5,3.3-3.3,3.3H26.7c-1.8,0-3.3-1.5-3.3-3.3s1.5-3.3,3.3-3.3h60c1.8,0,3.3,1.5,3.3,3.3ZM83.3,33.3h-25.3l-19-19c-.6-.6-1.5-1-2.4-1h-3.3c-3.7,0-6.7,3-6.7,6.7,0,.7.1,1.4.3,2.1l3.8,11.2h-9.4l-9-9c-.6-.6-1.5-1-2.4-1h-3.3C3,23.3,0,26.3,0,30c0,.6,0,1.3.3,1.9l5.9,19.5c2.1,7.1,8.6,11.9,16,11.9h74.6c1.8,0,3.3-1.5,3.3-3.3v-10c0-9.2-7.5-16.7-16.7-16.7Z"/>
</svg>
