<?xml version="1.0" encoding="UTF-8"?>
<!DOCTYPE svg PUBLIC "-//W3C//DTD SVG 1.1//EN" "http://www.w3.org/Graphics/SVG/1.1/DTD/svg11.dtd">
<svg version="1.1" xmlns="http://www.w3.org/2000/svg" xmlns:xlink="http://www.w3.org/1999/xlink" x="0" y="0" width="512" height="512" viewBox="0, 0, 512, 512">
  <g id="Background">
    <rect x="0" y="0" width="512" height="512" fill="#000000" fill-opacity="0"/>
  </g>
  <g id="Background"/>
  <g id="Layer_1">
    <path d="M483.922,275.515 C480.786,275.512 478.071,273.421 477.167,270.31 C471.32,250.193 452.594,236.137 431.629,236.125 L415.463,236.116 C415.461,236.116 415.458,236.116 415.456,236.115 C415.454,236.115 415.452,236.115 415.45,236.115 L169.308,235.975 L140.573,191.489 C139.178,189.329 136.783,188.023 134.209,188.022 L98.633,188.001 C92.612,187.998 87.714,183.095 87.718,177.073 C87.727,164.275 82.124,152.195 72.347,143.933 L44.081,120.046 C41.828,118.142 38.678,117.718 35.999,118.959 C33.323,120.201 31.61,122.881 31.607,125.832 L31.556,213.926 L18.606,213.918 C13.66,213.917 9,215.847 5.483,219.358 C1.968,222.869 0.031,227.527 0.027,232.475 C0.023,237.422 1.956,242.082 5.468,245.598 C8.98,249.113 13.639,251.05 18.586,251.053 L36.933,251.063 C37.281,252.366 37.971,253.594 39.018,254.592 L99.094,311.835 C111.973,324.104 128.861,330.868 146.648,330.878 L216.992,330.918 C215.04,333.654 213.112,336.357 211.648,338.415 C211.518,338.597 211.399,338.767 211.275,338.942 C210.704,338.998 210.132,339.065 209.56,339.156 C194.7,341.538 184.52,355.595 186.909,370.474 C188.066,377.682 191.962,384.008 197.877,388.286 C203.791,392.564 211.019,394.282 218.227,393.125 C218.722,393.045 219.215,392.952 219.703,392.846 C226.295,391.421 232.054,387.664 236.038,382.157 C240.314,376.243 242.034,369.015 240.877,361.808 C239.719,354.6 235.824,348.274 229.91,343.995 C229.105,343.413 228.275,342.883 227.424,342.396 C228.408,341.016 229.459,339.543 230.533,338.039 C231.918,339.988 233.466,341.843 235.192,343.57 C243.235,351.621 253.896,356.06 265.209,356.065 L281.046,356.074 C281.047,356.073 281.048,356.073 281.048,356.074 C281.048,356.075 281.049,356.074 281.05,356.074 L306.866,356.089 C307.41,356.088 307.948,356.03 308.472,355.917 C309.884,355.612 311.19,354.908 312.228,353.871 C313.649,352.45 314.449,350.523 314.452,348.512 L314.461,330.97 L414.223,331.027 C414.026,331.281 413.828,331.532 413.64,331.794 C409.361,337.709 407.642,344.936 408.8,352.144 C411.189,367.023 425.239,377.184 440.119,374.795 C440.614,374.716 441.107,374.623 441.593,374.517 C448.186,373.092 453.945,369.335 457.929,363.827 C462.207,357.912 463.925,350.685 462.768,343.478 C462.014,338.784 460.098,334.562 457.363,331.053 L483.887,331.068 C485.859,331.069 487.784,330.858 489.639,330.457 C501.843,327.818 511.018,316.942 511.027,303.959 L511.027,302.654 C511.038,287.697 498.876,275.523 483.922,275.515 z M423.031,251.282 L431.623,251.286 C445.89,251.295 458.633,260.859 462.613,274.544 C462.707,274.871 462.828,275.185 462.936,275.505 L423.017,275.482 L423.031,251.282 z M46.759,142.157 L62.562,155.514 C68.921,160.888 72.564,168.743 72.558,177.068 C72.551,191.449 84.245,203.155 98.626,203.163 L130.077,203.181 L151.255,235.967 L132.153,235.956 C132.36,234.85 132.474,233.713 132.475,232.549 C132.48,222.311 124.156,213.977 113.917,213.972 L46.718,213.934 L46.759,142.157 z M18.595,235.892 C16.748,235.891 15.189,234.33 15.19,232.482 C15.191,231.271 15.822,230.46 16.199,230.083 C16.575,229.707 17.386,229.076 18.599,229.077 L113.908,229.131 C115.755,229.132 117.315,230.693 117.314,232.54 C117.313,234.385 115.755,235.941 113.908,235.946 L85.706,235.929 C85.704,235.93 85.702,235.93 85.7,235.93 L18.595,235.892 z M225.912,364.21 C226.427,367.419 225.662,370.639 223.758,373.272 C221.852,375.907 219.048,377.638 215.827,378.156 C212.617,378.672 209.399,377.907 206.765,376.001 C204.131,374.096 202.396,371.279 201.881,368.069 C200.853,361.663 205.049,355.601 211.319,354.245 C211.532,354.199 211.75,354.158 211.968,354.124 C215.177,353.608 218.396,354.373 221.03,356.278 C223.663,358.184 225.396,361.001 225.912,364.21 z M222.736,313.54 C222.735,314.284 222.756,315.023 222.794,315.76 L146.66,315.717 C132.78,315.709 119.603,310.432 109.554,300.858 L57.305,251.074 L113.897,251.107 C113.9,251.107 113.902,251.107 113.905,251.106 L189.531,251.149 C184.491,254.469 181.152,260.171 181.149,266.647 C181.143,276.884 189.467,285.218 199.707,285.224 L233.609,285.243 C226.589,293.056 222.742,303.013 222.736,313.54 z M273.481,340.912 L265.222,340.908 C257.958,340.903 251.104,338.044 245.923,332.859 C242.674,329.604 240.341,325.694 239.056,321.436 C239.047,321.401 239.037,321.366 239.027,321.332 C239.009,321.272 238.995,321.213 238.977,321.153 C238.97,321.13 238.965,321.106 238.958,321.083 C238.261,318.66 237.896,316.132 237.898,313.549 C237.901,306.286 240.76,299.432 245.947,294.251 C249.728,290.472 254.4,287.934 259.469,286.838 C261.35,286.431 263.288,286.223 265.254,286.224 L273.513,286.229 L273.481,340.912 z M299.309,323.374 C299.31,323.377 299.308,323.38 299.309,323.383 C299.31,323.386 299.309,323.389 299.31,323.392 L299.301,340.924 L288.641,340.92 L288.672,286.237 L299.33,286.243 L299.309,323.374 z M199.714,270.064 C197.867,270.063 196.307,268.501 196.308,266.655 C196.31,265.045 197.495,263.655 199.022,263.325 C199.247,263.276 199.48,263.249 199.717,263.25 L333.026,263.325 C334.873,263.326 336.433,264.888 336.432,266.733 C336.43,268.581 334.865,270.143 333.023,270.14 L333.022,270.14 L199.714,270.064 z M447.804,345.882 C448.319,349.091 447.554,352.31 445.65,354.944 C443.743,357.579 440.934,359.307 437.719,359.829 C431.093,360.893 424.837,356.368 423.773,349.743 C423.259,346.533 424.024,343.315 425.928,340.681 C427.703,338.228 430.267,336.555 433.203,335.92 C433.42,335.873 433.639,335.832 433.86,335.796 C440.485,334.731 446.741,339.256 447.804,345.882 z M495.872,302.647 L495.872,303.95 C495.868,310.547 490.495,315.909 483.901,315.908 L314.475,315.812 L314.492,285.288 L333.015,285.298 C334.368,285.298 335.683,285.154 336.953,284.879 C345.305,283.072 351.588,275.628 351.594,266.741 C351.597,260.267 348.264,254.561 343.228,251.234 L407.872,251.271 L407.853,283.052 C407.853,285.062 408.65,286.991 410.07,288.412 C411.49,289.836 413.418,290.634 415.429,290.636 L483.916,290.675 C490.511,290.681 495.875,296.05 495.872,302.647 z" fill="#119DA4"/>
  </g>
</svg>
